<svg width="80" height="40" viewBox="0 0 80 40" fill="none" xmlns="http://www.w3.org/2000/svg">
<path d="M16.741 18.996V20.274H11.071V18.996H16.741ZM14.551 22.464H13.273V16.794H14.551V22.464ZM20.9564 15.324H22.7024V24H20.9564V15.324ZM24.4258 24V17.796H26.1418V18.672C26.3298 18.4 26.5818 18.166 26.8978 17.97C27.2178 17.774 27.6198 17.676 28.1038 17.676C28.3158 17.676 28.5318 17.714 28.7518 17.79C28.9718 17.866 29.1778 17.978 29.3698 18.126C29.5658 18.27 29.7238 18.452 29.8438 18.672C30.0438 18.388 30.3058 18.152 30.6298 17.964C30.9578 17.772 31.3218 17.676 31.7218 17.676C31.9538 17.676 32.1878 17.714 32.4238 17.79C32.6638 17.866 32.8838 17.99 33.0838 18.162C33.2838 18.334 33.4438 18.564 33.5638 18.852C33.6878 19.136 33.7498 19.488 33.7498 19.908V24H31.9978V20.124C31.9978 19.876 31.9478 19.678 31.8478 19.53C31.7518 19.378 31.6278 19.27 31.4758 19.206C31.3278 19.138 31.1698 19.104 31.0018 19.104C30.8458 19.104 30.6878 19.136 30.5278 19.2C30.3678 19.26 30.2318 19.358 30.1198 19.494C30.0078 19.63 29.9518 19.808 29.9518 20.028V24H28.2058V19.968C28.2058 19.78 28.1558 19.622 28.0558 19.494C27.9558 19.366 27.8298 19.27 27.6778 19.206C27.5298 19.138 27.3778 19.104 27.2218 19.104C27.0618 19.104 26.9018 19.138 26.7418 19.206C26.5818 19.27 26.4478 19.372 26.3398 19.512C26.2318 19.648 26.1778 19.82 26.1778 20.028V24H24.4258ZM36.925 24.12C36.529 24.12 36.173 24.046 35.857 23.898C35.541 23.75 35.291 23.536 35.107 23.256C34.923 22.972 34.831 22.628 34.831 22.224C34.831 21.544 35.085 21.028 35.593 20.676C36.101 20.32 36.903 20.136 37.999 20.124L38.773 20.112V19.74C38.773 19.456 38.689 19.238 38.521 19.086C38.357 18.93 38.101 18.854 37.753 18.858C37.497 18.862 37.253 18.922 37.021 19.038C36.793 19.154 36.637 19.356 36.553 19.644H35.095C35.119 19.196 35.249 18.828 35.485 18.54C35.721 18.248 36.041 18.032 36.445 17.892C36.853 17.748 37.315 17.676 37.831 17.676C38.467 17.676 38.977 17.756 39.361 17.916C39.745 18.072 40.023 18.298 40.195 18.594C40.367 18.886 40.453 19.234 40.453 19.638V24H38.989L38.845 22.932C38.633 23.38 38.367 23.69 38.047 23.862C37.731 24.034 37.357 24.12 36.925 24.12ZM37.513 22.968C37.673 22.968 37.827 22.94 37.975 22.884C38.127 22.824 38.261 22.746 38.377 22.65C38.497 22.55 38.593 22.438 38.665 22.314C38.737 22.19 38.773 22.062 38.773 21.93V21.012L38.143 21.024C37.851 21.028 37.579 21.064 37.327 21.132C37.075 21.196 36.871 21.302 36.715 21.45C36.563 21.598 36.487 21.798 36.487 22.05C36.487 22.338 36.587 22.564 36.787 22.728C36.987 22.888 37.229 22.968 37.513 22.968ZM44.8779 26.052C43.7739 26.052 42.9339 25.912 42.3579 25.632C41.7859 25.352 41.4999 24.984 41.4999 24.528C41.4999 24.316 41.5559 24.138 41.6679 23.994C41.7799 23.85 41.9099 23.736 42.0579 23.652C42.2099 23.564 42.3479 23.498 42.4719 23.454C42.5999 23.406 42.6779 23.374 42.7059 23.358C42.6419 23.322 42.5499 23.27 42.4299 23.202C42.3099 23.13 42.1979 23.034 42.0939 22.914C41.9939 22.79 41.9439 22.63 41.9439 22.434C41.9439 22.214 42.0479 22.01 42.2559 21.822C42.4679 21.634 42.7879 21.504 43.2159 21.432C42.8079 21.24 42.4979 20.98 42.2859 20.652C42.0739 20.324 41.9679 19.988 41.9679 19.644C41.9679 19.236 42.0959 18.886 42.3519 18.594C42.6079 18.302 42.9559 18.08 43.3959 17.928C43.8399 17.776 44.3419 17.7 44.9019 17.7C45.3299 17.7 45.6799 17.746 45.9519 17.838C46.2239 17.926 46.4759 18.042 46.7079 18.186C46.7999 18.15 46.9219 18.104 47.0739 18.048C47.2259 17.988 47.3899 17.924 47.5659 17.856C47.7419 17.784 47.9139 17.714 48.0819 17.646C48.2499 17.574 48.3999 17.51 48.5319 17.454L48.5259 18.81L47.4519 18.984C47.4959 19.092 47.5299 19.208 47.5539 19.332C47.5779 19.456 47.5899 19.558 47.5899 19.638C47.5899 19.998 47.4839 20.334 47.2719 20.646C47.0639 20.958 46.7499 21.21 46.3299 21.402C45.9139 21.594 45.3979 21.69 44.7819 21.69C44.7059 21.69 44.6039 21.688 44.4759 21.684C44.3519 21.68 44.2499 21.674 44.1699 21.666C43.9339 21.678 43.7719 21.708 43.6839 21.756C43.5959 21.804 43.5519 21.86 43.5519 21.924C43.5519 22.02 43.6419 22.084 43.8219 22.116C44.0019 22.144 44.2739 22.17 44.6379 22.194C44.7659 22.202 44.9439 22.212 45.1719 22.224C45.3999 22.236 45.6519 22.252 45.9279 22.272C46.6879 22.324 47.2539 22.512 47.6259 22.836C48.0019 23.156 48.1899 23.56 48.1899 24.048C48.1899 24.628 47.9139 25.106 47.3619 25.482C46.8139 25.862 45.9859 26.052 44.8779 26.052ZM45.1599 25.074C45.6479 25.074 45.9959 25.014 46.2039 24.894C46.4119 24.774 46.5159 24.602 46.5159 24.378C46.5159 24.19 46.4359 24.038 46.2759 23.922C46.1159 23.802 45.8819 23.732 45.5739 23.712L44.1519 23.616C43.9679 23.608 43.8039 23.636 43.6599 23.7C43.5199 23.764 43.4099 23.852 43.3299 23.964C43.2539 24.076 43.2159 24.196 43.2159 24.324C43.2159 24.584 43.3739 24.774 43.6899 24.894C44.0059 25.014 44.4959 25.074 45.1599 25.074ZM44.8299 20.712C45.1619 20.712 45.4279 20.622 45.6279 20.442C45.8319 20.258 45.9339 20.01 45.9339 19.698C45.9339 19.374 45.8319 19.114 45.6279 18.918C45.4279 18.722 45.1619 18.624 44.8299 18.624C44.5019 18.624 44.2339 18.722 44.0259 18.918C43.8219 19.114 43.7199 19.374 43.7199 19.698C43.7199 20.006 43.8179 20.252 44.0139 20.436C44.2139 20.62 44.4859 20.712 44.8299 20.712ZM50.8267 21.3C50.8227 21.616 50.8727 21.892 50.9767 22.128C51.0807 22.36 51.2307 22.54 51.4267 22.668C51.6267 22.792 51.8667 22.854 52.1467 22.854C52.4467 22.854 52.7087 22.79 52.9327 22.662C53.1607 22.534 53.3187 22.324 53.4067 22.032H54.9847C54.9167 22.472 54.7407 22.848 54.4567 23.16C54.1767 23.472 53.8367 23.71 53.4367 23.874C53.0367 24.038 52.6207 24.12 52.1887 24.12C51.5767 24.12 51.0367 23.992 50.5687 23.736C50.1047 23.476 49.7427 23.11 49.4827 22.638C49.2227 22.166 49.0927 21.61 49.0927 20.97C49.0927 20.35 49.2107 19.792 49.4467 19.296C49.6827 18.796 50.0247 18.402 50.4727 18.114C50.9247 17.822 51.4667 17.676 52.0987 17.676C52.7307 17.676 53.2607 17.81 53.6887 18.078C54.1207 18.342 54.4447 18.712 54.6607 19.188C54.8807 19.66 54.9907 20.206 54.9907 20.826V21.3H50.8267ZM50.8207 20.256H53.3527C53.3527 20.008 53.3067 19.78 53.2147 19.572C53.1227 19.364 52.9827 19.2 52.7947 19.08C52.6107 18.96 52.3787 18.9 52.0987 18.9C51.8267 18.9 51.5947 18.966 51.4027 19.098C51.2147 19.226 51.0707 19.394 50.9707 19.602C50.8707 19.81 50.8207 20.028 50.8207 20.256ZM59.117 15.108C58.701 15.888 58.367 16.738 58.115 17.658C57.863 18.574 57.737 19.508 57.737 20.46C57.737 21.368 57.851 22.246 58.079 23.094C58.307 23.938 58.637 24.812 59.069 25.716H57.839C57.507 25.156 57.215 24.602 56.963 24.054C56.711 23.51 56.515 22.944 56.375 22.356C56.239 21.768 56.171 21.132 56.171 20.448C56.171 19.452 56.327 18.5 56.639 17.592C56.955 16.68 57.367 15.852 57.875 15.108H59.117ZM62.6571 24.12C62.2251 24.12 61.8091 24.05 61.4091 23.91C61.0091 23.766 60.6711 23.542 60.3951 23.238C60.1191 22.93 59.9431 22.532 59.8671 22.044H61.3851C61.4371 22.264 61.5311 22.438 61.6671 22.566C61.8071 22.694 61.9651 22.786 62.1411 22.842C62.3171 22.894 62.4851 22.92 62.6451 22.92C62.9811 22.92 63.2511 22.868 63.4551 22.764C63.6631 22.656 63.7671 22.492 63.7671 22.272C63.7671 22.104 63.7051 21.97 63.5811 21.87C63.4611 21.77 63.2611 21.694 62.9811 21.642L61.8891 21.414C61.3411 21.298 60.9011 21.102 60.5691 20.826C60.2371 20.546 60.0671 20.15 60.0591 19.638C60.0591 19.266 60.1571 18.932 60.3531 18.636C60.5531 18.34 60.8471 18.106 61.2351 17.934C61.6231 17.762 62.0991 17.676 62.6631 17.676C63.4271 17.676 64.0371 17.844 64.4931 18.18C64.9531 18.516 65.1871 18.99 65.1951 19.602H63.7311C63.6871 19.362 63.5671 19.178 63.3711 19.05C63.1791 18.918 62.9371 18.852 62.6451 18.852C62.3411 18.852 62.0911 18.906 61.8951 19.014C61.6991 19.122 61.6011 19.286 61.6011 19.506C61.6011 19.67 61.6811 19.8 61.8411 19.896C62.0011 19.988 62.2491 20.068 62.5851 20.136L63.5931 20.364C63.9411 20.448 64.2231 20.564 64.4391 20.712C64.6591 20.856 64.8291 21.014 64.9491 21.186C65.0691 21.358 65.1511 21.532 65.1951 21.708C65.2431 21.88 65.2671 22.036 65.2671 22.176C65.2671 22.588 65.1571 22.94 64.9371 23.232C64.7171 23.52 64.4111 23.74 64.0191 23.892C63.6271 24.044 63.1731 24.12 62.6571 24.12ZM65.72 15.108C66.136 15.888 66.47 16.738 66.722 17.658C66.974 18.574 67.1 19.508 67.1 20.46C67.1 21.368 66.986 22.246 66.758 23.094C66.53 23.938 66.2 24.812 65.768 25.716H66.998C67.33 25.156 67.622 24.602 67.874 24.054C68.126 23.51 68.32 22.944 68.456 22.356C68.596 21.768 68.666 21.132 68.666 20.448C68.666 19.452 68.508 18.5 68.192 17.592C67.88 16.68 67.47 15.852 66.962 15.108H65.72Z" fill="#75BE43"/>
<rect x="0.5" y="0.5" width="79" height="39" rx="7.5" stroke="#75BE43"/>
</svg>
