<svg width="573" height="537" viewBox="0 0 573 537" fill="none" xmlns="http://www.w3.org/2000/svg">
<mask id="mask0_930_2767" style="mask-type:alpha" maskUnits="userSpaceOnUse" x="216" y="0" width="149" height="147">
<path d="M363.834 73.1628C363.834 113.357 331.031 145.945 290.561 145.945C250.091 145.945 217.287 113.357 217.287 73.1628C217.287 32.9686 250.091 0.3805 290.561 0.3805C331.031 0.3805 363.834 32.9686 363.834 73.1628Z" fill="#FFEBEB" stroke="black" stroke-width="0.761"/>
</mask>
<g mask="url(#mask0_930_2767)">
<path d="M363.834 73.1628C363.834 113.357 331.031 145.945 290.561 145.945C250.091 145.945 217.287 113.357 217.287 73.1628C217.287 32.9686 250.091 0.3805 290.561 0.3805C331.031 0.3805 363.834 32.9686 363.834 73.1628Z" fill="#FFEBEB" stroke="black" stroke-width="0.761"/>
<path d="M254.612 29.5303C254.612 29.5303 219.856 14.8181 216.491 62.4138C215.396 77.7821 196.445 93.1503 219.258 116.471C232.297 129.811 213.943 146.174 257.26 166.273C274.041 174.067 292.893 171.721 296.974 169.653C311.923 162.098 359.52 204.445 367.901 160.23C371.205 142.774 399.632 148.997 386.135 111.521C378.352 89.9494 403.394 72.1755 365.114 53.4275C355.22 48.5765 367.005 17.4226 319.329 19.1523C304.598 19.6891 280.372 -5.6993 254.612 29.5303Z" fill="#DB1F77"/>
<path d="M260.959 37.7191C260.959 37.7191 227.33 23.5173 224.074 69.4623C223.015 84.2975 204.679 99.1327 226.752 121.645C239.368 134.522 221.609 150.317 263.521 169.72C279.758 177.243 297.998 174.978 301.947 172.982C316.411 165.69 362.464 206.568 370.573 163.886C373.771 147.035 401.275 153.042 388.216 116.866C380.685 96.0428 404.916 78.8854 367.877 60.7876C358.304 56.1048 369.707 26.0314 323.577 27.7011C309.323 28.2192 285.883 3.7114 260.959 37.7191Z" fill="#286EB4"/>
<path d="M252.763 93.9802C252.852 102.019 256.183 106.814 261.507 106.744C261.49 109.265 261.807 114.324 263.5 118.59L259.462 152.121C280.582 177.101 304.328 151.574 304.328 151.574L304.029 147.872L280.811 131.953C290.966 136.766 299.216 135.884 304.822 133.593C313.566 130.032 318.908 122.645 322.328 114.765C322.804 113.672 323.244 112.561 323.65 111.433C323.985 110.481 324.302 109.511 324.602 108.542C325.166 106.708 325.642 104.857 326.03 103.041C326.294 101.807 326.541 100.573 326.735 99.3747C326.876 98.5285 327.017 97.6999 327.123 96.8713C328.392 87.7395 328.357 84.6721 327.934 80.635C326.629 68.4181 319.19 57.7349 310.534 57.5762C301.772 57.4176 302.953 64.8218 285.271 66.4084C274.059 67.4132 271.45 76.2806 269.67 86.0295C269.194 88.5857 268.189 89.6082 267.008 89.4495C266.214 89.3437 265.351 88.6915 264.557 87.5985C264.046 86.9286 263.464 86.1881 262.759 85.3596C259.198 81.2344 252.64 83.3323 252.763 93.9802Z" fill="#F0A625"/>
<path d="M320.864 78.4835C316.721 76.8616 312.684 77.8665 312.632 77.8841C312.261 77.9722 312.032 78.3601 312.138 78.7303C312.226 79.1005 312.614 79.3297 312.984 79.2239C313.301 79.1358 320.864 77.2847 325.254 83.7193C325.465 84.0366 325.906 84.1248 326.224 83.8956C326.541 83.6841 326.629 83.2433 326.4 82.926C324.813 80.599 322.821 79.2415 320.864 78.4835Z" fill="#371D15"/>
<path d="M292.27 113.125C296.413 114.712 300.45 113.672 300.521 113.654C300.891 113.548 301.102 113.178 301.014 112.808C300.908 112.437 300.538 112.226 300.168 112.314C299.851 112.402 292.288 114.324 287.863 107.907C287.651 107.59 287.211 107.519 286.893 107.731C286.576 107.942 286.505 108.383 286.717 108.7C288.321 111.027 290.313 112.367 292.27 113.125Z" fill="#371D15"/>
<path d="M286.153 74.1294C290.578 73.6711 294.209 75.6984 294.262 75.7337C294.597 75.9276 294.703 76.3507 294.509 76.6856C294.315 77.0206 293.892 77.1264 293.557 76.9325C293.275 76.7738 286.47 72.9659 280.529 78.0078C280.229 78.2546 279.806 78.2194 279.559 77.9197C279.313 77.62 279.348 77.1969 279.63 76.9501C281.798 75.1343 284.072 74.3586 286.153 74.1294Z" fill="#371D15"/>
<path d="M310.309 89.4998C310.027 91.58 311.244 93.4663 313.042 93.7131C314.84 93.9599 316.515 92.4615 316.797 90.3813C317.079 88.301 315.863 86.4147 314.064 86.1679C312.284 85.9387 310.591 87.4196 310.309 89.4998Z" fill="#371D15"/>
<path d="M280.781 85.8507C280.499 87.9309 281.715 89.8172 283.513 90.064C285.311 90.3108 286.986 88.8124 287.268 86.7321C287.55 84.6519 286.334 82.7656 284.536 82.5188C282.738 82.272 281.063 83.7705 280.781 85.8507Z" fill="#371D15"/>
<path d="M299.78 104.98C301.296 105.068 302.759 104.681 303.87 103.852C305.104 102.9 305.686 101.56 305.457 100.168C305.016 97.5408 304.663 95.108 304.399 93.0454C304.222 92.0229 302.847 92.2697 303.041 93.2922C303.306 95.3548 303.658 97.8052 304.099 100.414C304.24 101.296 303.852 102.142 303.041 102.777C301.984 103.588 299.903 104.134 297.523 103.023C297.171 102.865 296.765 103.006 296.607 103.358C296.448 103.711 296.589 104.116 296.942 104.275C297.858 104.681 298.828 104.927 299.78 104.98Z" fill="#371D15"/>
<path d="M284.653 101.073C285.136 97.493 282.462 94.1771 278.679 93.6665C274.897 93.1558 271.439 95.6437 270.956 99.2233C270.473 102.803 273.147 106.119 276.929 106.629C280.711 107.14 284.169 104.652 284.653 101.073Z" fill="#DB1F77"/>
<path d="M326.717 99.3743C326.523 100.573 326.276 101.789 326.012 103.041C325.624 104.857 325.148 106.69 324.584 108.541C324.284 109.511 323.967 110.463 323.632 111.433C323.156 111.468 322.662 111.45 322.169 111.38C318.379 110.868 315.717 107.537 316.193 103.958C316.669 100.379 320.142 97.8758 323.914 98.3871C324.954 98.5281 325.906 98.8807 326.717 99.3743Z" fill="#DB1F77"/>
<path d="M363.834 73.1628C363.834 113.357 331.031 145.945 290.561 145.945C250.091 145.945 217.287 113.357 217.287 73.1628C217.287 32.9686 250.091 0.3805 290.561 0.3805C331.031 0.3805 363.834 32.9686 363.834 73.1628Z" stroke="black" stroke-width="0.761"/>
</g>
<g filter="url(#filter0_d_930_2767)">
<rect x="100.805" y="125.033" width="369.91" height="234.919" rx="35.0626" fill="white"/>
<rect x="101.243" y="125.471" width="369.034" height="234.043" rx="34.6243" stroke="#333333" stroke-width="0.876564"/>
</g>
<rect x="84.4877" y="391.735" width="160.685" height="39.2804" rx="19.6402" fill="white" stroke="black" stroke-width="0.876564"/>
<path d="M147.684 418.815C146.52 418.815 145.521 418.547 144.688 418.011C143.86 417.469 143.233 416.727 142.805 415.785C142.382 414.838 142.171 413.762 142.171 412.558C142.171 411.325 142.385 410.247 142.813 409.322C143.247 408.392 143.875 407.673 144.696 407.165C145.518 406.657 146.497 406.403 147.633 406.403C148.717 406.403 149.63 406.637 150.372 407.105C151.114 407.573 151.69 408.155 152.101 408.851L151.194 409.399C150.84 408.811 150.369 408.332 149.781 407.961C149.193 407.585 148.48 407.396 147.641 407.396C146.711 407.396 145.918 407.613 145.261 408.047C144.605 408.475 144.109 409.077 143.772 409.853C143.435 410.629 143.267 411.531 143.267 412.558C143.267 413.568 143.444 414.473 143.798 415.272C144.157 416.065 144.674 416.69 145.347 417.146C146.02 417.597 146.811 417.823 147.718 417.823C148.597 417.823 149.327 417.623 149.91 417.223C150.492 416.824 151 416.262 151.433 415.537L152.324 416.059C151.867 416.875 151.254 417.54 150.483 418.054C149.713 418.562 148.78 418.815 147.684 418.815ZM156.878 418.815C155.97 418.815 155.274 418.59 154.789 418.139C154.304 417.688 154.061 417.064 154.061 416.265C154.061 415.289 154.427 414.592 155.157 414.176C155.893 413.759 156.875 413.542 158.102 413.525L160.088 413.491V412.926C160.088 412.11 159.894 411.491 159.506 411.069C159.123 410.641 158.57 410.426 157.845 410.426C157.286 410.426 156.798 410.535 156.381 410.752C155.965 410.969 155.551 411.311 155.14 411.779L154.472 411.111C155.357 410.067 156.484 409.545 157.853 409.545C158.544 409.545 159.132 409.676 159.617 409.939C160.108 410.201 160.476 410.578 160.721 411.069C160.972 411.554 161.098 412.13 161.098 412.798V416.667C161.098 417.375 161.115 418.034 161.149 418.644H160.19C160.15 418.096 160.13 417.571 160.13 417.069H160.088C159.745 417.623 159.312 418.054 158.787 418.362C158.267 418.664 157.631 418.815 156.878 418.815ZM157.04 417.942C157.697 417.942 158.253 417.805 158.709 417.531C159.172 417.258 159.517 416.909 159.745 416.487C159.974 416.065 160.088 415.628 160.088 415.177V414.313L158.256 414.347C157.257 414.364 156.481 414.513 155.927 414.792C155.38 415.072 155.106 415.563 155.106 416.265C155.106 416.778 155.271 417.186 155.602 417.489C155.933 417.791 156.412 417.942 157.04 417.942ZM163.906 411.556C163.906 411.123 163.9 410.743 163.888 410.418C163.883 410.087 163.877 409.856 163.871 409.725H164.83C164.841 409.833 164.853 410.047 164.864 410.367C164.881 410.686 164.89 410.989 164.89 411.274H164.924C165.244 410.703 165.652 410.272 166.148 409.981C166.65 409.69 167.264 409.545 167.989 409.545C168.788 409.545 169.458 409.745 170 410.144C170.543 410.538 170.945 411.08 171.207 411.77C171.476 412.461 171.61 413.249 171.61 414.133C171.61 415.029 171.473 415.831 171.199 416.538C170.931 417.24 170.517 417.797 169.958 418.208C169.404 418.613 168.719 418.815 167.903 418.815C167.241 418.815 166.642 418.667 166.105 418.37C165.575 418.074 165.181 417.666 164.924 417.146H164.881C164.887 417.243 164.893 417.429 164.898 417.703C164.91 417.977 164.916 418.285 164.916 418.627V422.291H163.906V411.556ZM167.758 417.934C168.665 417.934 169.358 417.597 169.838 416.924C170.317 416.25 170.557 415.326 170.557 414.15C170.557 413.015 170.323 412.116 169.855 411.454C169.387 410.792 168.694 410.461 167.775 410.461C167.238 410.461 166.756 410.583 166.328 410.829C165.9 411.074 165.555 411.479 165.292 412.044C165.03 412.604 164.898 413.337 164.898 414.244C164.898 415.1 165.021 415.802 165.267 416.35C165.518 416.898 165.857 417.3 166.285 417.557C166.713 417.808 167.204 417.934 167.758 417.934ZM176.241 418.815C175.333 418.815 174.637 418.59 174.152 418.139C173.667 417.688 173.424 417.064 173.424 416.265C173.424 415.289 173.79 414.592 174.52 414.176C175.256 413.759 176.238 413.542 177.465 413.525L179.451 413.491V412.926C179.451 412.11 179.257 411.491 178.869 411.069C178.486 410.641 177.933 410.426 177.208 410.426C176.649 410.426 176.161 410.535 175.744 410.752C175.328 410.969 174.914 411.311 174.503 411.779L173.835 411.111C174.72 410.067 175.847 409.545 177.217 409.545C177.907 409.545 178.495 409.676 178.98 409.939C179.471 410.201 179.839 410.578 180.084 411.069C180.335 411.554 180.461 412.13 180.461 412.798V416.667C180.461 417.375 180.478 418.034 180.512 418.644H179.554C179.514 418.096 179.494 417.571 179.494 417.069H179.451C179.108 417.623 178.675 418.054 178.15 418.362C177.63 418.664 176.994 418.815 176.241 418.815ZM176.403 417.942C177.06 417.942 177.616 417.805 178.073 417.531C178.535 417.258 178.88 416.909 179.108 416.487C179.337 416.065 179.451 415.628 179.451 415.177V414.313L177.619 414.347C176.62 414.364 175.844 414.513 175.291 414.792C174.743 415.072 174.469 415.563 174.469 416.265C174.469 416.778 174.634 417.186 174.965 417.489C175.296 417.791 175.776 417.942 176.403 417.942ZM187.301 418.815C186.593 418.815 185.982 418.667 185.469 418.37C184.955 418.074 184.558 417.657 184.279 417.121H184.253C184.253 417.469 184.245 417.805 184.227 418.131C184.216 418.45 184.21 418.621 184.21 418.644H183.234C183.24 418.513 183.246 418.282 183.252 417.951C183.263 417.62 183.269 417.238 183.269 416.804V406.086H184.279V409.964C184.279 410.238 184.273 410.509 184.262 410.777C184.256 411.04 184.25 411.208 184.245 411.283H184.279C184.615 410.706 185.038 410.272 185.546 409.981C186.054 409.69 186.673 409.545 187.403 409.545C188.174 409.545 188.824 409.736 189.355 410.118C189.891 410.501 190.294 411.037 190.562 411.728C190.836 412.412 190.973 413.214 190.973 414.133C190.973 415.069 190.83 415.891 190.545 416.598C190.265 417.3 189.849 417.845 189.295 418.233C188.741 418.621 188.077 418.815 187.301 418.815ZM187.121 417.934C188.005 417.934 188.693 417.609 189.184 416.958C189.675 416.302 189.92 415.369 189.92 414.159C189.92 412.995 189.683 412.087 189.209 411.437C188.736 410.786 188.045 410.461 187.138 410.461C186.596 410.461 186.108 410.589 185.674 410.846C185.246 411.103 184.904 411.514 184.647 412.079C184.39 412.644 184.262 413.365 184.262 414.244C184.262 415.089 184.384 415.788 184.63 416.342C184.881 416.889 185.22 417.292 185.648 417.549C186.082 417.805 186.573 417.934 187.121 417.934ZM193.755 407.49C193.532 407.49 193.35 407.419 193.207 407.276C193.07 407.134 193.002 406.951 193.002 406.728C193.002 406.506 193.07 406.323 193.207 406.181C193.35 406.038 193.532 405.967 193.755 405.967C193.972 405.967 194.149 406.038 194.286 406.181C194.428 406.323 194.5 406.506 194.5 406.728C194.5 406.945 194.428 407.128 194.286 407.276C194.149 407.419 193.972 407.49 193.755 407.49ZM193.25 409.725H194.26V418.644H193.25V409.725ZM198.668 418.773C198.018 418.773 197.567 418.582 197.316 418.199C197.071 417.817 196.948 417.252 196.948 416.504V406.086H197.958V416.47C197.958 416.955 198.021 417.306 198.146 417.523C198.278 417.74 198.514 417.848 198.857 417.848C199.079 417.848 199.288 417.825 199.482 417.78L199.593 418.653C199.308 418.733 198.999 418.773 198.668 418.773ZM201.562 407.49C201.339 407.49 201.157 407.419 201.014 407.276C200.877 407.134 200.809 406.951 200.809 406.728C200.809 406.506 200.877 406.323 201.014 406.181C201.157 406.038 201.339 405.967 201.562 405.967C201.779 405.967 201.956 406.038 202.093 406.181C202.235 406.323 202.307 406.506 202.307 406.728C202.307 406.945 202.235 407.128 202.093 407.276C201.956 407.419 201.779 407.49 201.562 407.49ZM201.057 409.725H202.067V418.644H201.057V409.725ZM206.903 418.781C206.253 418.781 205.768 418.619 205.448 418.293C205.134 417.962 204.977 417.466 204.977 416.804V410.606H203.796V409.725H204.994L205.063 407.816L205.996 407.713V409.725H208.076V410.606H205.996V416.675C205.996 417.098 206.082 417.403 206.253 417.591C206.43 417.774 206.724 417.865 207.135 417.865C207.397 417.865 207.722 417.82 208.11 417.728L208.213 418.601C207.751 418.721 207.314 418.781 206.903 418.781ZM210.345 407.49C210.122 407.49 209.939 407.419 209.797 407.276C209.66 407.134 209.591 406.951 209.591 406.728C209.591 406.506 209.66 406.323 209.797 406.181C209.939 406.038 210.122 405.967 210.345 405.967C210.561 405.967 210.738 406.038 210.875 406.181C211.018 406.323 211.089 406.506 211.089 406.728C211.089 406.945 211.018 407.128 210.875 407.276C210.738 407.419 210.561 407.49 210.345 407.49ZM209.84 409.725H210.85V418.644H209.84V409.725ZM217.133 418.815C216.3 418.815 215.581 418.63 214.976 418.259C214.376 417.882 213.917 417.343 213.597 416.641C213.278 415.934 213.118 415.095 213.118 414.125C213.118 413.097 213.298 412.241 213.657 411.556C214.017 410.872 214.491 410.367 215.078 410.041C215.666 409.71 216.308 409.545 217.004 409.545C217.855 409.545 218.56 409.742 219.119 410.135C219.678 410.529 220.086 411.049 220.343 411.693C220.605 412.338 220.737 413.04 220.737 413.799C220.737 413.908 220.722 414.105 220.694 414.39H214.18C214.18 415.023 214.285 415.608 214.496 416.145C214.713 416.681 215.044 417.112 215.489 417.437C215.934 417.763 216.485 417.925 217.141 417.925C217.706 417.925 218.197 417.811 218.614 417.583C219.036 417.355 219.444 417.038 219.838 416.633L220.446 417.36C220.029 417.777 219.555 418.125 219.025 418.405C218.5 418.679 217.869 418.815 217.133 418.815ZM219.692 413.508C219.635 412.515 219.381 411.756 218.93 411.231C218.485 410.7 217.84 410.435 216.996 410.435C216.516 410.435 216.068 410.543 215.652 410.76C215.241 410.971 214.901 411.308 214.633 411.77C214.371 412.227 214.225 412.806 214.197 413.508H219.692ZM225.676 418.815C224.968 418.815 224.321 418.704 223.733 418.482C223.151 418.253 222.637 417.928 222.192 417.506L222.817 416.735C223.233 417.135 223.67 417.437 224.126 417.643C224.583 417.848 225.1 417.951 225.676 417.951C226.349 417.951 226.903 417.814 227.337 417.54C227.77 417.266 227.987 416.849 227.987 416.29C227.987 415.931 227.896 415.645 227.713 415.434C227.536 415.223 227.305 415.06 227.02 414.946C226.74 414.826 226.329 414.692 225.787 414.544L225.376 414.433C224.788 414.273 224.301 414.11 223.912 413.945C223.524 413.774 223.199 413.525 222.937 413.2C222.68 412.875 222.551 412.452 222.551 411.933C222.551 411.437 222.677 411.009 222.928 410.649C223.179 410.29 223.536 410.018 223.998 409.836C224.46 409.648 225.002 409.553 225.625 409.553C226.235 409.553 226.8 409.656 227.319 409.862C227.839 410.067 228.284 410.352 228.655 410.718L228.03 411.445C227.705 411.12 227.334 410.872 226.917 410.7C226.506 410.524 226.075 410.435 225.625 410.435C224.968 410.435 224.455 410.563 224.084 410.82C223.718 411.077 223.536 411.431 223.536 411.882C223.536 412.224 223.627 412.498 223.81 412.704C223.998 412.909 224.241 413.069 224.537 413.183C224.84 413.291 225.279 413.423 225.856 413.577C225.884 413.582 225.941 413.597 226.027 413.619C226.66 413.791 227.174 413.956 227.568 414.116C227.961 414.276 228.298 414.524 228.578 414.861C228.857 415.197 228.997 415.645 228.997 416.205C228.997 416.741 228.86 417.206 228.586 417.6C228.318 417.994 227.933 418.296 227.431 418.507C226.934 418.713 226.349 418.815 225.676 418.815Z" fill="black"/>
<rect x="250.719" y="459.909" width="159.751" height="40.2143" rx="20.1071" fill="white" stroke="black" stroke-width="0.876564"/>
<path d="M314.948 487.188C313.961 487.188 313.108 487.025 312.389 486.7C311.67 486.374 311.045 485.906 310.514 485.296L311.293 484.577C311.773 485.102 312.286 485.51 312.834 485.801C313.388 486.092 314.087 486.237 314.931 486.237C315.536 486.237 316.081 486.152 316.566 485.981C317.057 485.809 317.445 485.544 317.731 485.184C318.022 484.825 318.167 484.371 318.167 483.823C318.167 483.293 318.03 482.87 317.756 482.556C317.488 482.243 317.148 482.006 316.738 481.846C316.327 481.681 315.753 481.501 315.017 481.307L314.615 481.204C313.844 480.999 313.202 480.785 312.689 480.562C312.181 480.339 311.75 480.014 311.396 479.586C311.048 479.152 310.874 478.585 310.874 477.883C310.874 477.192 311.054 476.616 311.413 476.153C311.773 475.686 312.255 475.34 312.86 475.118C313.465 474.889 314.144 474.775 314.897 474.775C315.787 474.775 316.549 474.918 317.183 475.203C317.816 475.489 318.358 475.885 318.809 476.393L318.056 477.095C317.656 476.678 317.208 476.347 316.712 476.102C316.215 475.857 315.61 475.734 314.897 475.734C314.224 475.734 313.664 475.825 313.219 476.008C312.78 476.191 312.457 476.439 312.252 476.753C312.047 477.067 311.944 477.423 311.944 477.823C311.944 478.325 312.081 478.727 312.355 479.03C312.634 479.332 312.974 479.563 313.373 479.723C313.779 479.877 314.364 480.06 315.128 480.271L315.496 480.374C316.312 480.596 316.969 480.816 317.465 481.033C317.962 481.244 318.381 481.572 318.723 482.017C319.072 482.457 319.246 483.044 319.246 483.781C319.246 484.431 319.083 485.013 318.758 485.527C318.432 486.04 317.947 486.446 317.303 486.742C316.658 487.039 315.873 487.188 314.948 487.188ZM328.362 483.421H322.73L321.377 487.016H320.23L324.921 474.955H326.197L330.845 487.016H329.715L328.362 483.421ZM328.011 482.471L326.325 477.985C326.154 477.557 325.991 477.129 325.837 476.701C325.683 476.268 325.589 475.988 325.555 475.862C325.526 475.982 325.432 476.259 325.272 476.693C325.118 477.121 324.952 477.554 324.776 477.994L323.089 482.471H328.011ZM332.471 474.955H336.708C337.599 474.955 338.349 475.101 338.96 475.392C339.576 475.683 340.038 476.096 340.347 476.633C340.66 477.164 340.817 477.788 340.817 478.508C340.817 479.204 340.663 479.829 340.355 480.382C340.047 480.936 339.588 481.375 338.977 481.7C338.372 482.02 337.636 482.18 336.768 482.18H333.541V487.016H332.471V474.955ZM336.64 481.213C337.673 481.213 338.446 480.976 338.96 480.502C339.479 480.028 339.739 479.369 339.739 478.525C339.739 477.691 339.471 477.052 338.934 476.607C338.398 476.156 337.61 475.931 336.572 475.931H333.541V481.213H336.64ZM353.067 487.188C351.903 487.188 350.904 486.919 350.071 486.383C349.243 485.841 348.616 485.099 348.188 484.157C347.765 483.21 347.554 482.134 347.554 480.93C347.554 479.697 347.768 478.619 348.196 477.694C348.63 476.764 349.258 476.045 350.079 475.537C350.901 475.029 351.88 474.775 353.016 474.775C354.1 474.775 355.013 475.009 355.755 475.477C356.497 475.945 357.073 476.527 357.484 477.223L356.577 477.771C356.223 477.184 355.752 476.704 355.164 476.333C354.576 475.957 353.863 475.768 353.024 475.768C352.094 475.768 351.301 475.985 350.644 476.419C349.988 476.847 349.492 477.449 349.155 478.225C348.818 479.001 348.65 479.903 348.65 480.93C348.65 481.94 348.827 482.845 349.181 483.644C349.54 484.437 350.057 485.062 350.73 485.518C351.403 485.969 352.194 486.195 353.101 486.195C353.98 486.195 354.711 485.995 355.293 485.595C355.875 485.196 356.383 484.634 356.816 483.909L357.707 484.431C357.25 485.247 356.637 485.912 355.866 486.426C355.096 486.934 354.163 487.188 353.067 487.188ZM361.559 487.145C360.908 487.145 360.457 486.954 360.206 486.571C359.961 486.189 359.838 485.624 359.838 484.876V474.459H360.848V484.842C360.848 485.327 360.911 485.678 361.037 485.895C361.168 486.112 361.405 486.22 361.747 486.22C361.97 486.22 362.178 486.197 362.372 486.152L362.483 487.025C362.198 487.105 361.89 487.145 361.559 487.145ZM367.405 487.188C366.606 487.188 365.907 486.996 365.308 486.614C364.715 486.226 364.258 485.681 363.938 484.979C363.619 484.277 363.459 483.467 363.459 482.548C363.459 481.641 363.613 480.839 363.921 480.143C364.235 479.441 364.692 478.896 365.291 478.508C365.896 478.114 366.618 477.917 367.457 477.917C368.336 477.917 369.072 478.111 369.665 478.499C370.264 478.887 370.71 479.429 371.001 480.125C371.292 480.816 371.437 481.623 371.437 482.548C371.437 483.467 371.277 484.277 370.958 484.979C370.638 485.675 370.176 486.217 369.571 486.605C368.966 486.994 368.244 487.188 367.405 487.188ZM367.388 486.306C368.313 486.306 369.043 485.992 369.58 485.364C370.116 484.736 370.384 483.798 370.384 482.548C370.384 481.304 370.127 480.371 369.614 479.749C369.106 479.121 368.398 478.807 367.491 478.807C366.886 478.807 366.358 478.947 365.907 479.227C365.462 479.506 365.117 479.926 364.872 480.485C364.632 481.038 364.512 481.726 364.512 482.548C364.512 483.37 364.638 484.063 364.889 484.628C365.145 485.193 365.491 485.615 365.924 485.895C366.358 486.169 366.846 486.306 367.388 486.306ZM376.59 487.188C375.592 487.188 374.85 486.877 374.365 486.254C373.88 485.627 373.637 484.779 373.637 483.712V478.097H374.656V483.558C374.656 484.448 374.833 485.13 375.187 485.604C375.546 486.072 376.117 486.306 376.899 486.306C377.395 486.306 377.849 486.172 378.26 485.904C378.671 485.635 378.993 485.267 379.227 484.799C379.461 484.326 379.578 483.801 379.578 483.224V478.097H380.588V485.073C380.588 485.484 380.591 485.875 380.597 486.246C380.608 486.611 380.617 486.868 380.622 487.016H379.698C379.686 486.874 379.675 486.617 379.664 486.246C379.652 485.869 379.646 485.555 379.646 485.304H379.612C379.287 485.926 378.876 486.397 378.38 486.717C377.889 487.031 377.292 487.188 376.59 487.188ZM386.512 487.188C385.718 487.188 385.048 486.994 384.5 486.605C383.958 486.217 383.55 485.678 383.276 484.988C383.008 484.297 382.874 483.501 382.874 482.599C382.874 481.675 383.013 480.862 383.293 480.16C383.578 479.458 384.004 478.91 384.569 478.516C385.134 478.117 385.827 477.917 386.649 477.917C387.311 477.917 387.896 478.068 388.404 478.371C388.917 478.667 389.302 479.075 389.559 479.595H389.576V479.338C389.565 478.938 389.559 478.579 389.559 478.259V474.459H390.578V485.176C390.578 485.604 390.581 485.983 390.586 486.314C390.592 486.645 390.598 486.879 390.603 487.016H389.645C389.633 486.976 389.619 486.782 389.602 486.434C389.591 486.086 389.585 485.755 389.585 485.441H389.559C389.251 486.012 388.849 486.446 388.352 486.742C387.856 487.039 387.242 487.188 386.512 487.188ZM386.7 486.28C387.562 486.28 388.258 485.975 388.789 485.364C389.319 484.754 389.585 483.795 389.585 482.488C389.585 481.215 389.325 480.285 388.806 479.697C388.287 479.104 387.605 478.807 386.76 478.807C385.835 478.807 385.131 479.138 384.646 479.8C384.166 480.456 383.927 481.381 383.927 482.574C383.927 483.726 384.155 484.634 384.611 485.296C385.074 485.952 385.77 486.28 386.7 486.28Z" fill="black"/>
<ellipse opacity="0.3" cx="416.752" cy="176.726" rx="41.1373" ry="42.7523" transform="rotate(-14.708 416.752 176.726)" fill="url(#paint0_radial_930_2767)"/>
<rect x="84.5884" y="391.947" width="47.3345" height="39.4454" rx="19.7227" fill="#75BE43" stroke="black" stroke-width="0.876564"/>
<rect x="251.136" y="460.319" width="47.3345" height="39.4454" rx="19.7227" fill="#75BE43" stroke="black" stroke-width="0.876564"/>
<rect x="118.774" y="316.562" width="330.465" height="23.6672" rx="11.8336" fill="white" stroke="black" stroke-width="0.876564"/>
<rect x="152.96" y="326.204" width="35.9391" height="5.25938" rx="2.62969" fill="white" stroke="black" stroke-width="0.876564"/>
<rect x="411.347" y="391.735" width="109.322" height="39.2804" rx="19.6402" fill="white" stroke="black" stroke-width="0.876564"/>
<rect x="142.388" y="459.909" width="86.9085" height="40.2143" rx="20.1071" fill="white" stroke="black" stroke-width="0.876564"/>
<rect x="37.254" y="221.017" width="28.9266" height="29.8032" rx="14.4633" transform="rotate(-90 37.254 221.017)" fill="white" stroke="black" stroke-width="0.876564"/>
<rect x="394.016" y="199.979" width="47.3345" height="47.3345" rx="23.6672" transform="rotate(-90 394.016 199.979)" fill="#0A6ED1" stroke="black" stroke-width="0.876564"/>
<path d="M394.462 102.35H437.38" stroke="black" stroke-width="0.876564"/>
<rect x="437.819" y="105.526" width="6.35176" height="6.35176" rx="3.17588" transform="rotate(-90 437.819 105.526)" fill="white" stroke="black" stroke-width="0.876564"/>
<rect x="388.124" y="105.526" width="6.35176" height="6.35176" rx="3.17588" transform="rotate(-90 388.124 105.526)" fill="white" stroke="black" stroke-width="0.876564"/>
<path d="M91.7498 375.109H134.668" stroke="black" stroke-width="0.876564"/>
<rect x="135.106" y="378.285" width="6.35176" height="6.35176" rx="3.17588" transform="rotate(-90 135.106 378.285)" fill="white" stroke="black" stroke-width="0.876564"/>
<rect x="85.4114" y="378.285" width="6.35176" height="6.35176" rx="3.17588" transform="rotate(-90 85.4114 378.285)" fill="white" stroke="black" stroke-width="0.876564"/>
<path d="M483.435 197.563L483.435 154.645" stroke="black" stroke-width="0.876564"/>
<rect x="486.611" y="154.207" width="6.35176" height="6.35176" rx="3.17588" transform="rotate(180 486.611 154.207)" fill="white" stroke="black" stroke-width="0.876564"/>
<rect x="486.611" y="203.902" width="6.35176" height="6.35176" rx="3.17588" transform="rotate(180 486.611 203.902)" fill="white" stroke="black" stroke-width="0.876564"/>
<rect x="504.463" y="265.721" width="29.8032" height="29.8032" rx="14.9016" transform="rotate(-90 504.463 265.721)" fill="white" stroke="black" stroke-width="0.876564"/>
<rect x="495.697" y="334.093" width="45.5813" height="47.3345" rx="22.7907" transform="rotate(-90 495.697 334.093)" fill="#75BE43" stroke="black" stroke-width="0.876564"/>
<rect opacity="0.1" x="504.463" y="221.017" width="29.8032" height="29.8032" rx="14.9016" transform="rotate(-90 504.463 221.017)" fill="white" stroke="black" stroke-width="0.876564"/>
<rect x="275.934" y="391.735" width="71.0324" height="39.2804" rx="19.6402" fill="white" stroke="black" stroke-width="0.876564"/>
<path d="M289.105 406.583H293.377C294.227 406.583 294.96 406.717 295.577 406.985C296.193 407.254 296.664 407.644 296.989 408.158C297.32 408.666 297.486 409.277 297.486 409.99C297.486 410.578 297.363 411.111 297.118 411.591C296.872 412.07 296.513 412.467 296.039 412.781C295.571 413.094 295.006 413.297 294.344 413.388L297.871 418.644H296.604L293.248 413.508H290.175V418.644H289.105V406.583ZM293.343 412.541C294.033 412.541 294.607 412.432 295.063 412.216C295.52 411.993 295.856 411.691 296.073 411.308C296.296 410.926 296.407 410.492 296.407 410.007C296.407 409.214 296.13 408.609 295.577 408.192C295.029 407.77 294.261 407.559 293.274 407.559H290.175V412.541H293.343ZM303.529 418.815C302.696 418.815 301.977 418.63 301.372 418.259C300.773 417.882 300.313 417.343 299.994 416.641C299.674 415.934 299.514 415.095 299.514 414.125C299.514 413.097 299.694 412.241 300.054 411.556C300.413 410.872 300.887 410.367 301.475 410.041C302.063 409.71 302.705 409.545 303.401 409.545C304.251 409.545 304.956 409.742 305.515 410.135C306.074 410.529 306.482 411.049 306.739 411.693C307.002 412.338 307.133 413.04 307.133 413.799C307.133 413.908 307.119 414.105 307.09 414.39H300.576C300.576 415.023 300.681 415.608 300.893 416.145C301.11 416.681 301.441 417.112 301.886 417.437C302.331 417.763 302.881 417.925 303.538 417.925C304.103 417.925 304.594 417.811 305.01 417.583C305.432 417.355 305.84 417.038 306.234 416.633L306.842 417.36C306.425 417.777 305.952 418.125 305.421 418.405C304.896 418.679 304.265 418.815 303.529 418.815ZM306.089 413.508C306.032 412.515 305.778 411.756 305.327 411.231C304.882 410.7 304.237 410.435 303.392 410.435C302.913 410.435 302.465 410.543 302.048 410.76C301.637 410.971 301.298 411.308 301.03 411.77C300.767 412.227 300.622 412.806 300.593 413.508H306.089ZM311.499 418.781C310.848 418.781 310.363 418.619 310.043 418.293C309.73 417.962 309.573 417.466 309.573 416.804V410.606H308.391V409.725H309.59L309.658 407.816L310.591 407.713V409.725H312.671V410.606H310.591V416.675C310.591 417.098 310.677 417.403 310.848 417.591C311.025 417.774 311.319 417.865 311.73 417.865C311.992 417.865 312.318 417.82 312.706 417.728L312.808 418.601C312.346 418.721 311.91 418.781 311.499 418.781ZM316.789 418.815C315.882 418.815 315.185 418.59 314.7 418.139C314.215 417.688 313.973 417.064 313.973 416.265C313.973 415.289 314.338 414.592 315.068 414.176C315.805 413.759 316.786 413.542 318.013 413.525L319.999 413.491V412.926C319.999 412.11 319.805 411.491 319.417 411.069C319.035 410.641 318.481 410.426 317.756 410.426C317.197 410.426 316.709 410.535 316.292 410.752C315.876 410.969 315.462 411.311 315.051 411.779L314.384 411.111C315.268 410.067 316.395 409.545 317.765 409.545C318.455 409.545 319.043 409.676 319.528 409.939C320.019 410.201 320.387 410.578 320.632 411.069C320.884 411.554 321.009 412.13 321.009 412.798V416.667C321.009 417.375 321.026 418.034 321.06 418.644H320.102C320.062 418.096 320.042 417.571 320.042 417.069H319.999C319.657 417.623 319.223 418.054 318.698 418.362C318.179 418.664 317.542 418.815 316.789 418.815ZM316.952 417.942C317.608 417.942 318.164 417.805 318.621 417.531C319.083 417.258 319.428 416.909 319.657 416.487C319.885 416.065 319.999 415.628 319.999 415.177V414.313L318.167 414.347C317.168 414.364 316.392 414.513 315.839 414.792C315.291 415.072 315.017 415.563 315.017 416.265C315.017 416.778 315.182 417.186 315.513 417.489C315.844 417.791 316.324 417.942 316.952 417.942ZM324.322 407.49C324.099 407.49 323.917 407.419 323.774 407.276C323.637 407.134 323.569 406.951 323.569 406.728C323.569 406.506 323.637 406.323 323.774 406.181C323.917 406.038 324.099 405.967 324.322 405.967C324.539 405.967 324.716 406.038 324.853 406.181C324.995 406.323 325.067 406.506 325.067 406.728C325.067 406.945 324.995 407.128 324.853 407.276C324.716 407.419 324.539 407.49 324.322 407.49ZM323.817 409.725H324.827V418.644H323.817V409.725ZM329.235 418.773C328.585 418.773 328.134 418.582 327.883 418.199C327.638 417.817 327.515 417.252 327.515 416.504V406.086H328.525V416.47C328.525 416.955 328.588 417.306 328.713 417.523C328.845 417.74 329.081 417.848 329.424 417.848C329.646 417.848 329.855 417.825 330.049 417.78L330.16 418.653C329.875 418.733 329.566 418.773 329.235 418.773Z" fill="black"/>
<path d="M427.443 406.583H434.805V407.567H428.513V411.933H434.283V412.918H428.513V417.66H435.156V418.644H427.443V406.583ZM437.561 406.583H441.833C442.683 406.583 443.416 406.717 444.033 406.985C444.649 407.254 445.12 407.644 445.445 408.158C445.776 408.666 445.942 409.277 445.942 409.99C445.942 410.578 445.819 411.111 445.573 411.591C445.328 412.07 444.969 412.467 444.495 412.781C444.027 413.094 443.462 413.297 442.8 413.388L446.327 418.644H445.06L441.704 413.508H438.631V418.644H437.561V406.583ZM441.798 412.541C442.489 412.541 443.062 412.432 443.519 412.216C443.976 411.993 444.312 411.691 444.529 411.308C444.752 410.926 444.863 410.492 444.863 410.007C444.863 409.214 444.586 408.609 444.033 408.192C443.485 407.77 442.717 407.559 441.73 407.559H438.631V412.541H441.798ZM448.775 406.583H453.012C453.903 406.583 454.653 406.728 455.264 407.02C455.88 407.311 456.342 407.724 456.65 408.261C456.964 408.792 457.121 409.416 457.121 410.135C457.121 410.832 456.967 411.457 456.659 412.01C456.351 412.564 455.891 413.003 455.281 413.328C454.676 413.648 453.94 413.808 453.072 413.808H449.845V418.644H448.775V406.583ZM452.944 412.84C453.977 412.84 454.75 412.604 455.264 412.13C455.783 411.656 456.043 410.997 456.043 410.153C456.043 409.319 455.774 408.68 455.238 408.235C454.701 407.784 453.914 407.559 452.875 407.559H449.845V412.84H452.944Z" fill="black"/>
<path d="M162.004 474.079H163.074V479.317H170.144V474.079H171.214V486.14H170.144V480.319H163.074V486.14H162.004V474.079ZM180.973 482.545H175.34L173.988 486.14H172.841L177.532 474.079H178.807L183.455 486.14H182.325L180.973 482.545ZM180.622 481.594L178.936 477.109C178.764 476.681 178.602 476.253 178.448 475.825C178.294 475.391 178.199 475.112 178.165 474.986C178.137 475.106 178.043 475.383 177.883 475.816C177.729 476.244 177.563 476.678 177.386 477.117L175.7 481.594H180.622ZM185.082 474.079H186.306L193.514 484.899C193.508 484.756 193.502 484.468 193.497 484.034C193.491 483.595 193.488 483.098 193.488 482.545V474.079H194.472V486.14H193.18L186.032 475.397C186.038 475.545 186.043 475.828 186.049 476.244C186.055 476.661 186.058 477.103 186.058 477.571V486.14H185.082V474.079ZM204.222 482.545H198.59L197.237 486.14H196.09L200.781 474.079H202.057L206.705 486.14H205.575L204.222 482.545ZM203.871 481.594L202.185 477.109C202.014 476.681 201.851 476.253 201.697 475.825C201.543 475.391 201.449 475.112 201.415 474.986C201.386 475.106 201.292 475.383 201.132 475.816C200.978 476.244 200.813 476.678 200.636 477.117L198.949 481.594H203.871Z" fill="black"/>
<ellipse opacity="0.3" cx="518.739" cy="311.7" rx="44.0541" ry="45.4875" transform="rotate(-14.708 518.739 311.7)" fill="url(#paint1_radial_930_2767)"/>
<ellipse opacity="0.3" cx="106.001" cy="412.667" rx="44.0541" ry="45.4875" transform="rotate(-14.708 106.001 412.667)" fill="url(#paint2_radial_930_2767)"/>
<ellipse opacity="0.3" cx="271.924" cy="481.559" rx="44.0541" ry="45.4875" transform="rotate(-14.708 271.924 481.559)" fill="url(#paint3_radial_930_2767)"/>
<ellipse opacity="0.3" cx="161.977" cy="269.625" rx="44.0541" ry="45.4875" transform="rotate(-14.708 161.977 269.625)" fill="url(#paint4_radial_930_2767)"/>
<ellipse opacity="0.3" cx="54.1595" cy="151.288" rx="44.0541" ry="45.4875" transform="rotate(-14.708 54.1595 151.288)" fill="url(#paint5_radial_930_2767)"/>
<rect x="473.783" y="391.947" width="47.3345" height="39.4454" rx="19.7227" fill="#F0A625" stroke="black" stroke-width="0.876564"/>
<rect x="28.4883" y="173.682" width="46.4579" height="47.3345" rx="23.2289" transform="rotate(-90 28.4883 173.682)" fill="#F0A625" stroke="black" stroke-width="0.876564"/>
<rect x="135.429" y="291.142" width="46.4579" height="47.3345" rx="23.2289" transform="rotate(-90 135.429 291.142)" fill="#925ACE" stroke="black" stroke-width="0.876564"/>
<g filter="url(#filter1_d_930_2767)">
<path d="M86.8203 412.776H58.9362C49.3012 410.766 30.0311 399.99 30.0311 372.97C30.0311 345.949 30.0311 321.1 30.0311 312.053C28.8632 297.377 34.1479 268.025 64.6296 268.025C95.1113 268.025 129.046 268.025 141.016 268.025" stroke="url(#paint6_linear_930_2767)" stroke-width="8.76564" stroke-linecap="round"/>
</g>
<g filter="url(#filter2_d_930_2767)">
<path d="M69.5743 152.206H127.919C139.548 152.206 159.535 154.132 159.535 181.926C159.535 209.721 159.535 237.723 159.535 250.281" stroke="url(#paint7_linear_930_2767)" stroke-width="8.76564" stroke-linecap="round"/>
</g>
<g filter="url(#filter3_d_930_2767)">
<path d="M500.561 310.865H483.064C465.894 310.865 454.69 299.084 454.69 280.961C454.69 262.837 454.69 223.267 454.69 202.123C454.69 191.702 452.888 176.75 431.27 176.75" stroke="url(#paint8_linear_930_2767)" stroke-width="8.76564" stroke-linecap="round"/>
</g>
<g filter="url(#filter4_d_930_2767)">
<path d="M275.241 462.739L275.241 460.134C275.241 455.47 278.212 446.144 290.098 446.144C301.983 446.144 341.696 446.144 360.067 446.144C365.978 446.445 377.799 443.617 377.799 429.899C377.799 416.18 377.799 377.551 377.799 359.952" stroke="url(#paint9_linear_930_2767)" stroke-width="8.76564" stroke-linecap="round"/>
</g>
<path d="M132.58 323.023L141.127 327.958L132.58 332.892L132.58 323.023Z" stroke="black" stroke-width="0.876564"/>
<path d="M271.495 484.513L266.622 479.639L264.962 481.287L271.495 487.821L285.52 473.796L283.872 472.148L271.495 484.513Z" fill="white"/>
<path d="M517.378 316.27L512.504 311.396L510.844 313.044L517.378 319.578L531.403 305.552L529.755 303.905L517.378 316.27Z" fill="white"/>
<path d="M104.072 417.075L99.1978 412.201L97.5382 413.849L104.072 420.382L118.097 406.357L116.449 404.709L104.072 417.075Z" fill="white"/>
<path d="M283.196 247.479C279.533 247.479 272.036 245.77 267.29 242.515C256.287 234.929 251.415 229.384 246.446 218.876C246.111 218.171 244.87 216.99 243.662 215.849C240.675 213.011 236.946 209.489 238.509 205.829C238.578 205.672 238.678 205.529 238.803 205.41C238.928 205.291 239.075 205.197 239.236 205.135C239.397 205.072 239.57 205.041 239.743 205.045C239.916 205.048 240.086 205.085 240.245 205.154C240.404 205.223 240.547 205.323 240.667 205.447C240.787 205.571 240.881 205.717 240.944 205.877C241.008 206.037 241.038 206.208 241.035 206.38C241.031 206.552 240.994 206.722 240.925 206.88C240.078 208.876 243.071 211.713 245.481 213.996C246.984 215.425 248.277 216.651 248.822 217.799C253.621 227.91 258.099 232.972 268.786 240.369C273.008 243.285 280.137 244.935 283.413 244.87C288.855 244.726 300.626 243.494 310.192 239.788C319.527 236.181 324.943 233.657 330.477 229.065C342.564 219.039 346.069 209.645 347.382 206.11C347.507 205.784 347.605 205.516 347.691 205.301C347.828 204.991 348.081 204.746 348.397 204.617C348.713 204.489 349.066 204.488 349.383 204.614C349.699 204.741 349.954 204.985 350.093 205.294C350.231 205.604 350.244 205.955 350.126 206.273C350.048 206.469 349.956 206.717 349.844 207.017C348.597 210.376 344.783 220.598 332.158 231.067C326.342 235.888 320.748 238.51 311.15 242.222C301.25 246.051 289.105 247.329 283.492 247.479H283.196Z" fill="black"/>
<path d="M264.948 259.617C264.59 259.632 264.234 259.57 263.906 259.434C263.578 259.298 263.286 259.092 263.053 258.833C261.465 257.061 263.053 253.406 265.779 247.593C266.638 245.788 267.605 243.748 267.701 243.016C267.75 242.669 267.942 242.355 268.232 242.144C268.376 242.039 268.54 241.963 268.715 241.919C268.89 241.875 269.072 241.864 269.251 241.888C269.43 241.912 269.602 241.969 269.758 242.056C269.914 242.144 270.051 242.26 270.16 242.398C270.269 242.536 270.349 242.694 270.395 242.861C270.44 243.029 270.451 243.204 270.427 243.375C270.277 244.402 269.513 246.043 268.28 248.646C267.183 250.947 264.988 255.557 265.125 256.989L265.39 256.93C266.12 256.734 267.081 255.897 267.926 255.151C269.118 254.112 270.352 253.033 271.762 252.876C272.934 252.745 273.364 251.974 273.929 250.718C274.331 249.822 274.829 248.711 276.069 248.508C277.521 248.266 277.432 245.893 277.432 245.893C277.416 245.546 277.544 245.207 277.788 244.951C278.032 244.695 278.372 244.542 278.734 244.526C279.095 244.511 279.448 244.633 279.715 244.868C279.983 245.102 280.142 245.428 280.158 245.775C280.24 247.351 279.62 250.424 276.751 251.058C276.648 251.228 276.512 251.536 276.403 251.771C275.831 253.079 274.877 255.178 272.055 255.491C271.517 255.557 270.529 256.413 269.738 257.106C268.607 258.094 267.442 259.107 266.092 259.467C265.719 259.565 265.334 259.615 264.948 259.617Z" fill="black"/>
<path d="M306.835 233.471C304.109 233.434 301.387 233.208 298.689 232.795L297.663 232.66C291.343 231.856 282.502 229.599 276.63 225.666C270.246 221.326 264.098 216.622 258.214 211.576C257.95 211.345 257.786 211.014 257.757 210.657C257.727 210.299 257.836 209.945 258.058 209.67C258.28 209.396 258.598 209.225 258.942 209.195C259.285 209.164 259.626 209.277 259.89 209.508C265.687 214.492 271.746 219.137 278.039 223.422C282.586 226.456 290.381 229.038 297.975 230.004L299.014 230.139C303.598 230.872 308.257 230.959 312.863 230.396C316.732 229.878 320.527 228.877 324.166 227.416C324.489 227.29 324.847 227.302 325.161 227.45C325.476 227.598 325.721 227.871 325.842 228.207C325.964 228.543 325.952 228.915 325.809 229.242C325.667 229.569 325.405 229.824 325.082 229.95C321.238 231.485 317.232 232.538 313.149 233.086C311.053 233.334 308.945 233.463 306.835 233.471Z" fill="black"/>
<path d="M299.048 237.2C293.429 237.2 286.866 236.497 282.218 234.99C276.553 233.151 271.669 230.238 265.375 224.944C260.418 220.727 255.786 216.161 251.515 211.283C251.405 211.154 251.323 211.004 251.272 210.844C251.222 210.683 251.204 210.514 251.221 210.347C251.237 210.18 251.287 210.018 251.368 209.869C251.449 209.721 251.559 209.589 251.692 209.482C251.825 209.375 251.978 209.295 252.143 209.246C252.308 209.197 252.481 209.18 252.653 209.196C252.825 209.212 252.992 209.26 253.144 209.339C253.296 209.418 253.431 209.525 253.541 209.655C257.712 214.434 262.239 218.906 267.086 223.035C273.105 228.093 277.734 230.864 283.051 232.614C289.45 234.696 300.136 235.169 305.722 234.262C305.892 234.235 306.066 234.24 306.234 234.279C306.402 234.317 306.56 234.387 306.7 234.485C306.84 234.582 306.959 234.706 307.05 234.849C307.141 234.991 307.202 235.15 307.23 235.316C307.258 235.481 307.252 235.651 307.213 235.814C307.174 235.978 307.102 236.132 307.002 236.268C306.901 236.405 306.774 236.521 306.628 236.609C306.481 236.698 306.318 236.757 306.148 236.785C303.796 237.101 301.422 237.239 299.048 237.2Z" fill="black"/>
<path d="M289.526 241.876C278.085 241.876 271.939 237.931 266.933 234.738L265.879 234.09C261.064 231.033 254.418 222.41 249.076 215.422C247.95 213.949 246.876 212.554 245.901 211.308C245.793 211.175 245.712 211.021 245.663 210.856C245.615 210.692 245.6 210.52 245.619 210.349C245.639 210.179 245.692 210.014 245.776 209.864C245.86 209.714 245.973 209.582 246.109 209.475C246.244 209.368 246.4 209.289 246.567 209.241C246.734 209.194 246.909 209.179 247.082 209.198C247.255 209.217 247.422 209.269 247.574 209.352C247.727 209.434 247.861 209.546 247.969 209.68C248.951 210.932 250.031 212.333 251.164 213.819C256.381 220.613 262.869 229.061 267.295 231.87L268.356 232.519C273.625 235.919 279.659 239.773 291.858 239.196C292.031 239.188 292.204 239.213 292.367 239.271C292.53 239.329 292.68 239.418 292.808 239.532C292.936 239.647 293.04 239.786 293.114 239.94C293.187 240.094 293.23 240.262 293.238 240.432C293.246 240.602 293.22 240.773 293.162 240.933C293.103 241.094 293.013 241.241 292.896 241.368C292.78 241.494 292.639 241.596 292.482 241.669C292.326 241.742 292.156 241.783 291.983 241.791C291.144 241.848 290.325 241.876 289.526 241.876Z" fill="black"/>
<path d="M372.573 203.37C372.232 201.245 369.339 201.298 367.371 200.723C364.872 199.948 367.279 196.408 359.782 195.329L359.415 195.276C355.558 194.78 357.959 187.937 355.755 186.733C350.593 183.914 354.895 178.541 352.141 178.375C349.943 178.243 347.857 182.035 347.064 185.284C346.87 186.031 346.756 186.796 346.723 187.567C346.637 190.876 346.165 194.581 344.919 196.057C342 199.459 331.243 206.625 330.58 206.553C330.2 206.553 330.003 206.4 329.924 206.215C324.237 217.558 313.447 224.314 302.474 222.197C291.146 220.006 283.071 209.014 281.799 195.726C281.491 195.627 281.189 195.541 280.887 195.462C276.841 194.501 272.692 194.056 268.536 194.138C264.138 194.15 259.749 194.542 255.417 195.309C254.296 195.521 253.332 195.746 252.571 195.971C247.52 197.447 238.14 202.403 238.14 206.559C238.14 212.422 243.388 207.029 246.884 206.209C250.044 205.628 253.286 205.678 256.428 206.354C257.966 206.647 259.477 207.068 260.947 207.611C264.331 208.862 269.474 213.011 272.832 214.566C273.343 214.826 273.886 215.015 274.446 215.129C277.43 215.625 281.786 216.611 283.629 218.332C285.472 220.052 287.755 222.521 290.739 224.241C292.596 225.299 294.609 226.047 296.702 226.458C297.836 228.527 298.613 230.776 298.997 233.109C299.168 234.393 299.286 236.166 299.456 238.079C299.752 241.295 300.224 244.921 301.424 247.39C302.903 250.06 304.662 252.563 306.672 254.854C309.656 258.368 313.283 261.809 316.209 262.901C321.456 264.886 326.533 269.611 328.822 267.487C331.111 265.363 330.429 259.698 328.822 258.712C327.215 257.726 327.674 255.761 326.533 254.53C325.392 253.299 322.171 253.299 321.023 252.068L320.912 251.923C319.928 250.672 320.505 248.567 318.944 247.145C317.383 245.722 313.906 246.152 311.827 243.684C310.404 241.983 310.62 240.011 310.515 238.39C310.515 237.695 310.339 237.012 310.004 236.404C308.856 234.591 303.346 227.451 303.346 227.451C303.346 227.451 317.344 227.206 320.781 226.22C323.109 225.558 331.846 221.952 338.491 218.63C341.652 217.041 344.328 215.513 345.588 214.401C349.491 210.953 348.913 205.136 354.194 204.859C355.518 204.816 356.842 204.957 358.129 205.275C361.894 206.136 365.423 207.876 368.821 206.705C371.425 205.785 372.907 205.421 372.573 203.37ZM286.554 217.405C285.695 217.22 283.885 214.818 283.885 214.818C283.885 214.818 285.852 213.984 286.81 214.447C287.768 214.911 289.217 217.405 289.217 217.405C288.332 217.5 287.439 217.5 286.554 217.405Z" fill="#008FD3"/>
<path opacity="0.4" d="M359.545 195.278L359.175 195.226C355.289 194.731 357.708 187.909 355.487 186.708C350.286 183.897 354.621 178.54 351.845 178.375C349.631 178.243 347.53 182.024 346.73 185.263C346.907 189.424 346.645 193.593 345.95 197.7C344.73 205.095 342.05 212.175 338.066 218.529C341.251 216.945 343.948 215.421 345.217 214.313C349.149 210.875 348.567 205.076 353.888 204.799C355.222 204.757 356.556 204.897 357.853 205.215C358.245 203.565 358.587 201.885 358.877 200.174C359.148 198.538 359.373 196.901 359.545 195.278Z" fill="#F0AB00"/>
<path opacity="0.4" d="M255.884 195.425C255.957 199.149 256.287 202.863 256.871 206.536C258.355 206.831 259.813 207.254 261.23 207.8C264.495 209.058 269.455 213.229 272.694 214.793C270.066 208.289 268.654 201.313 268.537 194.248C264.295 194.259 260.062 194.653 255.884 195.425Z" fill="#F0AB00"/>
<path opacity="0.4" d="M300.111 238.22L299.776 238.14C300.072 241.363 300.545 244.997 301.746 247.47C303.227 250.147 304.988 252.654 307 254.95C311.879 254.764 316.695 253.771 321.256 252.013C320.271 250.759 320.849 248.651 319.286 247.225C317.723 245.799 314.243 246.237 312.161 243.764C310.736 242.059 310.953 240.083 310.848 238.459C307.281 238.984 303.652 238.904 300.111 238.22Z" fill="#F0AB00"/>
<path opacity="0.7" d="M347.346 185.843C347.153 186.573 347.039 187.321 347.005 188.075C346.92 191.311 346.449 194.934 345.205 196.377C342.291 199.736 331.553 206.744 330.892 206.672C330.512 206.672 330.315 206.524 330.237 206.342C324.56 217.434 313.789 224.04 302.835 221.97C291.528 219.828 283.468 209.08 282.198 196.086C281.89 195.989 281.589 195.905 281.287 195.827C277.249 194.888 273.107 194.453 268.958 194.533C269.078 201.402 270.537 208.185 273.254 214.509C273.763 214.762 274.305 214.947 274.864 215.059C277.843 215.544 282.191 216.508 284.031 218.191C285.871 219.873 288.149 222.287 291.128 223.969C292.981 225.003 294.991 225.735 297.08 226.137C298.213 228.16 298.988 230.359 299.372 232.64C299.542 233.896 299.66 235.63 299.83 237.5L300.164 237.577C303.693 238.242 307.309 238.318 310.863 237.804C310.862 237.124 310.686 236.456 310.352 235.863C309.206 234.09 303.706 227.108 303.706 227.108C303.706 227.108 317.679 226.868 321.11 225.904C323.434 225.257 332.155 221.73 338.788 218.482C342.735 212.251 345.39 205.307 346.599 198.053C347.28 194.02 347.53 189.927 347.346 185.843ZM286.945 217.285C286.087 217.104 284.28 214.755 284.28 214.755C284.28 214.755 286.244 213.939 287.2 214.392C288.156 214.845 289.603 217.285 289.603 217.285C288.719 217.377 287.828 217.377 286.945 217.285Z" fill="#F0AB00"/>
<path d="M302.775 221.888C313.785 223.948 324.61 217.381 330.316 206.34C329.974 205.657 331.231 204.138 330.138 203.764C328.756 203.281 320.471 210.949 312.186 210.466C304.164 210.003 291.397 198.987 282.033 196.116C283.309 209.063 291.41 219.757 302.775 221.888Z" fill="#F0AB00"/>
<defs>
<filter id="filter0_d_930_2767" x="97.0694" y="125.033" width="377.381" height="242.39" filterUnits="userSpaceOnUse" color-interpolation-filters="sRGB">
<feFlood flood-opacity="0" result="BackgroundImageFix"/>
<feColorMatrix in="SourceAlpha" type="matrix" values="0 0 0 0 0 0 0 0 0 0 0 0 0 0 0 0 0 0 127 0" result="hardAlpha"/>
<feOffset dy="3.73553"/>
<feGaussianBlur stdDeviation="1.86777"/>
<feComposite in2="hardAlpha" operator="out"/>
<feColorMatrix type="matrix" values="0 0 0 0 0 0 0 0 0 0 0 0 0 0 0 0 0 0 0.25 0"/>
<feBlend mode="normal" in2="BackgroundImageFix" result="effect1_dropShadow_930_2767"/>
<feBlend mode="normal" in="SourceGraphic" in2="effect1_dropShadow_930_2767" result="shape"/>
</filter>
<filter id="filter1_d_930_2767" x="21.7663" y="263.642" width="127.368" height="160.989" filterUnits="userSpaceOnUse" color-interpolation-filters="sRGB">
<feFlood flood-opacity="0" result="BackgroundImageFix"/>
<feColorMatrix in="SourceAlpha" type="matrix" values="0 0 0 0 0 0 0 0 0 0 0 0 0 0 0 0 0 0 127 0" result="hardAlpha"/>
<feOffset dy="3.73553"/>
<feGaussianBlur stdDeviation="1.86777"/>
<feComposite in2="hardAlpha" operator="out"/>
<feColorMatrix type="matrix" values="0 0 0 0 0 0 0 0 0 0 0 0 0 0 0 0 0 0 0.25 0"/>
<feBlend mode="normal" in2="BackgroundImageFix" result="effect1_dropShadow_930_2767"/>
<feBlend mode="normal" in="SourceGraphic" in2="effect1_dropShadow_930_2767" result="shape"/>
</filter>
<filter id="filter2_d_930_2767" x="61.456" y="147.824" width="106.197" height="114.311" filterUnits="userSpaceOnUse" color-interpolation-filters="sRGB">
<feFlood flood-opacity="0" result="BackgroundImageFix"/>
<feColorMatrix in="SourceAlpha" type="matrix" values="0 0 0 0 0 0 0 0 0 0 0 0 0 0 0 0 0 0 127 0" result="hardAlpha"/>
<feOffset dy="3.73553"/>
<feGaussianBlur stdDeviation="1.86777"/>
<feComposite in2="hardAlpha" operator="out"/>
<feColorMatrix type="matrix" values="0 0 0 0 0 0 0 0 0 0 0 0 0 0 0 0 0 0 0.25 0"/>
<feBlend mode="normal" in2="BackgroundImageFix" result="effect1_dropShadow_930_2767"/>
<feBlend mode="normal" in="SourceGraphic" in2="effect1_dropShadow_930_2767" result="shape"/>
</filter>
<filter id="filter3_d_930_2767" x="423.151" y="172.368" width="85.5285" height="150.351" filterUnits="userSpaceOnUse" color-interpolation-filters="sRGB">
<feFlood flood-opacity="0" result="BackgroundImageFix"/>
<feColorMatrix in="SourceAlpha" type="matrix" values="0 0 0 0 0 0 0 0 0 0 0 0 0 0 0 0 0 0 127 0" result="hardAlpha"/>
<feOffset dy="3.73553"/>
<feGaussianBlur stdDeviation="1.86777"/>
<feComposite in2="hardAlpha" operator="out"/>
<feColorMatrix type="matrix" values="0 0 0 0 0 0 0 0 0 0 0 0 0 0 0 0 0 0 0.25 0"/>
<feBlend mode="normal" in2="BackgroundImageFix" result="effect1_dropShadow_930_2767"/>
<feBlend mode="normal" in="SourceGraphic" in2="effect1_dropShadow_930_2767" result="shape"/>
</filter>
<filter id="filter4_d_930_2767" x="267.123" y="355.569" width="118.795" height="119.024" filterUnits="userSpaceOnUse" color-interpolation-filters="sRGB">
<feFlood flood-opacity="0" result="BackgroundImageFix"/>
<feColorMatrix in="SourceAlpha" type="matrix" values="0 0 0 0 0 0 0 0 0 0 0 0 0 0 0 0 0 0 127 0" result="hardAlpha"/>
<feOffset dy="3.73553"/>
<feGaussianBlur stdDeviation="1.86777"/>
<feComposite in2="hardAlpha" operator="out"/>
<feColorMatrix type="matrix" values="0 0 0 0 0 0 0 0 0 0 0 0 0 0 0 0 0 0 0.25 0"/>
<feBlend mode="normal" in2="BackgroundImageFix" result="effect1_dropShadow_930_2767"/>
<feBlend mode="normal" in="SourceGraphic" in2="effect1_dropShadow_930_2767" result="shape"/>
</filter>
<radialGradient id="paint0_radial_930_2767" cx="0" cy="0" r="1" gradientUnits="userSpaceOnUse" gradientTransform="translate(416.752 176.726) rotate(90) scale(42.7523 41.1373)">
<stop stop-color="#0A6ED1"/>
<stop offset="1" stop-color="#0A6ED1" stop-opacity="0"/>
</radialGradient>
<radialGradient id="paint1_radial_930_2767" cx="0" cy="0" r="1" gradientUnits="userSpaceOnUse" gradientTransform="translate(518.739 311.7) rotate(90) scale(45.4875 44.0541)">
<stop stop-color="#75BE43"/>
<stop offset="1" stop-color="#75BE43" stop-opacity="0"/>
</radialGradient>
<radialGradient id="paint2_radial_930_2767" cx="0" cy="0" r="1" gradientUnits="userSpaceOnUse" gradientTransform="translate(106.001 412.667) rotate(90) scale(45.4875 44.0541)">
<stop stop-color="#75BE43"/>
<stop offset="1" stop-color="#75BE43" stop-opacity="0"/>
</radialGradient>
<radialGradient id="paint3_radial_930_2767" cx="0" cy="0" r="1" gradientUnits="userSpaceOnUse" gradientTransform="translate(271.924 481.559) rotate(90) scale(45.4875 44.0541)">
<stop stop-color="#75BE43"/>
<stop offset="1" stop-color="#75BE43" stop-opacity="0"/>
</radialGradient>
<radialGradient id="paint4_radial_930_2767" cx="0" cy="0" r="1" gradientUnits="userSpaceOnUse" gradientTransform="translate(161.977 269.625) rotate(90) scale(45.4875 44.0541)">
<stop stop-color="#935BCF"/>
<stop offset="1" stop-color="#925ACE" stop-opacity="0"/>
</radialGradient>
<radialGradient id="paint5_radial_930_2767" cx="0" cy="0" r="1" gradientUnits="userSpaceOnUse" gradientTransform="translate(54.1595 151.288) rotate(90) scale(45.4875 44.0541)">
<stop stop-color="#F0A625"/>
<stop offset="1" stop-color="#F0A625" stop-opacity="0"/>
</radialGradient>
<linearGradient id="paint6_linear_930_2767" x1="94.0972" y1="231.837" x2="94.0972" y2="412.776" gradientUnits="userSpaceOnUse">
<stop offset="0.15625" stop-color="#925ACE"/>
<stop offset="0.510417" stop-color="#F6EF4A"/>
<stop offset="1" stop-color="#75BE43"/>
</linearGradient>
<linearGradient id="paint7_linear_930_2767" x1="55.9194" y1="152.206" x2="154.248" y2="262.84" gradientUnits="userSpaceOnUse">
<stop offset="0.0885417" stop-color="#F0A625"/>
<stop offset="0.494792" stop-color="#F7F049"/>
<stop offset="0.848958" stop-color="#925ACE"/>
</linearGradient>
<linearGradient id="paint8_linear_930_2767" x1="468.085" y1="176.75" x2="468.085" y2="310.865" gradientUnits="userSpaceOnUse">
<stop stop-color="#0A6ED1"/>
<stop offset="1" stop-color="#75BE43"/>
</linearGradient>
<linearGradient id="paint9_linear_930_2767" x1="326.52" y1="359.952" x2="326.52" y2="497.573" gradientUnits="userSpaceOnUse">
<stop stop-color="#0A6ED1"/>
<stop offset="0.630208" stop-color="#75BE43"/>
</linearGradient>
</defs>
</svg>
