<svg width="22" height="22" viewBox="0 0 22 22" fill="none" xmlns="http://www.w3.org/2000/svg">
<path opacity="0.48" d="M18.6367 1.83331C19.5649 1.83331 20.3173 2.58572 20.3173 3.51387C20.3173 4.44201 19.5649 5.19442 18.6367 5.19442C18.3472 5.19442 18.0748 5.12121 17.837 4.99229L15.0641 8.18194C15.1875 8.41581 15.2574 8.68232 15.2574 8.96515C15.2574 9.89329 14.505 10.6457 13.5768 10.6457C12.6766 10.6457 11.9417 9.93784 11.8983 9.04835L9.87853 8.35306C9.57029 8.72686 9.10362 8.96515 8.5813 8.96515C8.28144 8.96515 7.99991 8.88661 7.75618 8.74898L5.12021 10.9607C5.16986 11.1194 5.19662 11.2881 5.19662 11.4632C5.19662 12.3913 4.44421 13.1437 3.51607 13.1437C2.58792 13.1437 1.83551 12.3913 1.83551 11.4632C1.83551 10.535 2.58792 9.78262 3.51607 9.78262C3.8194 9.78262 4.10396 9.86299 4.34962 10.0036L6.98009 7.79636C6.92856 7.635 6.90074 7.46304 6.90074 7.28459C6.90074 6.35645 7.65315 5.60403 8.5813 5.60403C9.47576 5.60403 10.207 6.30282 10.2589 7.18426L12.2902 7.88391C12.5985 7.51746 13.0605 7.28459 13.5768 7.28459C13.7721 7.28459 13.9596 7.3179 14.134 7.37915L17.0392 4.03716C16.9853 3.87247 16.9562 3.69657 16.9562 3.51387C16.9562 2.58572 17.7086 1.83331 18.6367 1.83331Z" fill="#637381"/>
<path d="M19.4792 9.72449C19.9433 9.72449 20.3195 10.1007 20.3195 10.5648V20.4227C20.3195 20.6758 20.1143 20.881 19.8611 20.881H17.4167C17.1635 20.881 16.9583 20.6758 16.9583 20.4227V10.5648C16.9583 10.1007 17.3345 9.72449 17.7986 9.72449H19.4792ZM14.4375 15.6145C14.9016 15.6145 15.2778 15.9907 15.2778 16.4548V20.4227C15.2778 20.6758 15.0726 20.881 14.8195 20.881H12.375C12.1219 20.881 11.9167 20.6758 11.9167 20.4227V16.4548C11.9167 15.9907 12.2929 15.6145 12.757 15.6145H14.4375ZM9.39584 13.9274C9.85992 13.9274 10.2361 14.3036 10.2361 14.7676V20.4227C10.2361 20.6758 10.0309 20.881 9.77779 20.881H7.33334C7.08021 20.881 6.87501 20.6758 6.87501 20.4227V14.7676C6.87501 14.3036 7.25122 13.9274 7.71529 13.9274H9.39584ZM4.35418 18.2481C4.81825 18.2481 5.19445 18.6243 5.19445 19.0884V20.4227C5.19445 20.6758 4.98925 20.881 4.73612 20.881H2.29168C2.03855 20.881 1.83334 20.6758 1.83334 20.4227V19.0884C1.83334 18.6243 2.20955 18.2481 2.67362 18.2481H4.35418Z" fill="#637381"/>
</svg>
