<svg width="22" height="22" viewBox="0 0 22 22" fill="none" xmlns="http://www.w3.org/2000/svg">
<path fill-rule="evenodd" clip-rule="evenodd" d="M15.2717 4.21666L17.7833 6.72833C18.4855 7.39728 18.5142 8.50818 17.8475 9.21249L9.5975 17.4625C9.2987 17.7588 8.90707 17.9433 8.48834 17.985L4.66584 18.3333H4.58334C4.33968 18.3347 4.10549 18.2391 3.9325 18.0675C3.73912 17.8748 3.64167 17.606 3.66667 17.3342L4.06084 13.5117C4.10255 13.0929 4.28704 12.7013 4.58334 12.4025L12.8333 4.15249C13.5445 3.55167 14.5931 3.57926 15.2717 4.21666ZM12.21 7.33333L14.6667 9.78999L16.5 8.00249L13.9975 5.49999L12.21 7.33333Z" fill="#637381"/>
</svg>
