<svg width="22" height="22" viewBox="0 0 22 22" fill="none" xmlns="http://www.w3.org/2000/svg">
<path opacity="0.48" d="M16.236 6.52202C16.9318 6.52908 17.8992 6.53211 18.7199 6.52908C19.1402 6.52807 19.3538 6.02088 19.0623 5.71536C18.008 4.60821 16.1221 2.62683 15.0429 1.49346C14.7444 1.17987 14.2223 1.39566 14.2223 1.83025V4.48821C14.2223 5.60343 15.1318 6.52202 16.236 6.52202" fill="#637381"/>
<path fill-rule="evenodd" clip-rule="evenodd" d="M13.3774 15.4267H7.94638C7.53706 15.4267 7.19762 15.0838 7.19762 14.6704C7.19762 14.257 7.53706 13.9242 7.94638 13.9242H13.3774C13.7867 13.9242 14.1262 14.257 14.1262 14.6704C14.1262 15.0838 13.7867 15.4267 13.3774 15.4267M7.94638 8.88258H11.3208C11.7301 8.88258 12.0696 9.22541 12.0696 9.63883C12.0696 10.0522 11.7301 10.385 11.3208 10.385H7.94638C7.53706 10.385 7.19762 10.0522 7.19762 9.63883C7.19762 9.22541 7.53706 8.88258 7.94638 8.88258M19.1671 7.99519C18.7378 7.99519 18.2286 8.00527 17.9191 8.00527C17.4599 8.00527 16.8609 7.99519 16.1021 7.99519C14.2751 7.9851 12.7676 6.4726 12.7676 4.62735V1.38052C12.7676 1.12844 12.568 0.916687 12.3084 0.916687H6.9772C4.49131 0.916687 2.47464 2.9636 2.47464 5.46427V16.3341C2.47464 18.9558 4.59114 21.0834 7.18685 21.0834H15.1337C17.6096 21.0834 19.6163 19.0566 19.6163 16.5559V8.44894C19.6163 8.19685 19.4166 7.99519 19.1671 7.99519" fill="#637381"/>
</svg>
