<svg width="144" height="144" viewBox="0 0 144 144" fill="none" xmlns="http://www.w3.org/2000/svg">
<path fill-rule="evenodd" clip-rule="evenodd" d="M72 8C107.346 8 136 36.6538 136 72L135.991 73.0584C135.426 107.916 106.993 136 72 136C37.0072 136 8.57374 107.916 8.00857 73.0584L8 72C8 36.6538 36.6538 8 72 8Z" fill="#F4F6F8"/>
<path d="M61.5 57C61.5 57.55 61.95 58 62.5 58C63.05 58 63.5 57.55 63.5 57V55H65.5C66.05 55 66.5 54.55 66.5 54C66.5 53.45 66.05 53 65.5 53H63.5V51C63.5 50.45 63.05 50 62.5 50C61.95 50 61.5 50.45 61.5 51V53H59.5C58.95 53 58.5 53.45 58.5 54C58.5 54.55 58.95 55 59.5 55H61.5V57Z" fill="#637381"/>
<circle cx="71.5" cy="63" r="3" fill="#637381"/>
<path fill-rule="evenodd" clip-rule="evenodd" d="M76.33 55H79.5C80.6 55 81.5 55.9 81.5 57V69C81.5 70.1 80.6 71 79.5 71H63.5C62.4 71 61.5 70.1 61.5 69V58.72C61.8 58.89 62.13 59 62.5 59C63.6 59 64.5 58.1 64.5 57V56H65.5C66.6 56 67.5 55.1 67.5 54C67.5 53.63 67.39 53.3 67.22 53H73.62C74.18 53 74.72 53.24 75.09 53.65L76.33 55ZM66.5 63C66.5 65.76 68.74 68 71.5 68C74.26 68 76.5 65.76 76.5 63C76.5 60.24 74.26 58 71.5 58C68.74 58 66.5 60.24 66.5 63Z" fill="#637381"/>
<path d="M40.863 87C40.863 87.668 40.753 88.234 40.533 88.698C40.313 89.162 39.969 89.516 39.501 89.76C39.037 90 38.433 90.12 37.689 90.12C36.937 90.12 36.327 89.996 35.859 89.748C35.395 89.5 35.055 89.136 34.839 88.656C34.627 88.176 34.521 87.586 34.521 86.886V81.324H35.673V87.054C35.673 87.754 35.847 88.278 36.195 88.626C36.543 88.974 37.041 89.148 37.689 89.148C38.125 89.148 38.495 89.072 38.799 88.92C39.107 88.768 39.341 88.538 39.501 88.23C39.665 87.918 39.747 87.526 39.747 87.054V81.324H40.863V87ZM42.6953 91.932V83.796H43.7993L43.8113 84.876C43.8833 84.748 43.9753 84.614 44.0873 84.474C44.2033 84.334 44.3433 84.204 44.5073 84.084C44.6753 83.964 44.8693 83.866 45.0893 83.79C45.3133 83.714 45.5673 83.676 45.8513 83.676C46.3473 83.676 46.7833 83.79 47.1593 84.018C47.5393 84.242 47.8353 84.586 48.0473 85.05C48.2593 85.514 48.3653 86.102 48.3653 86.814C48.3653 87.526 48.2613 88.128 48.0533 88.62C47.8493 89.108 47.5533 89.48 47.1653 89.736C46.7773 89.992 46.3093 90.12 45.7613 90.12C45.4853 90.12 45.2393 90.08 45.0233 90C44.8113 89.924 44.6253 89.824 44.4653 89.7C44.3093 89.572 44.1773 89.436 44.0693 89.292C43.9653 89.148 43.8793 89.01 43.8113 88.878V91.932H42.6953ZM45.5513 89.256C46.0633 89.256 46.4813 89.062 46.8053 88.674C47.1293 88.282 47.2913 87.674 47.2913 86.85C47.2913 86.142 47.1433 85.58 46.8473 85.164C46.5513 84.748 46.1193 84.54 45.5513 84.54C44.9753 84.54 44.5393 84.754 44.2433 85.182C43.9473 85.606 43.7993 86.162 43.7993 86.85C43.7993 87.294 43.8653 87.698 43.9973 88.062C44.1293 88.426 44.3253 88.716 44.5853 88.932C44.8453 89.148 45.1673 89.256 45.5513 89.256ZM51.3863 90.078C51.0503 90.078 50.7783 90.032 50.5703 89.94C50.3663 89.848 50.2083 89.724 50.0963 89.568C49.9883 89.412 49.9143 89.234 49.8743 89.034C49.8383 88.83 49.8203 88.62 49.8203 88.404V81.084H50.9123V88.296C50.9123 88.608 50.9723 88.842 51.0923 88.998C51.2163 89.154 51.3883 89.24 51.6083 89.256L51.9443 89.262V89.982C51.8523 90.01 51.7563 90.032 51.6563 90.048C51.5563 90.068 51.4663 90.078 51.3863 90.078ZM55.7668 90.12C55.1948 90.12 54.6948 89.998 54.2668 89.754C53.8388 89.506 53.5068 89.144 53.2708 88.668C53.0348 88.192 52.9168 87.61 52.9168 86.922C52.9168 86.274 53.0268 85.706 53.2468 85.218C53.4668 84.73 53.7888 84.352 54.2128 84.084C54.6408 83.812 55.1588 83.676 55.7668 83.676C56.3388 83.676 56.8348 83.802 57.2548 84.054C57.6788 84.302 58.0068 84.668 58.2388 85.152C58.4708 85.636 58.5868 86.226 58.5868 86.922C58.5868 87.554 58.4788 88.11 58.2628 88.59C58.0508 89.07 57.7348 89.446 57.3148 89.718C56.8988 89.986 56.3828 90.12 55.7668 90.12ZM55.7668 89.244C56.1388 89.244 56.4528 89.15 56.7088 88.962C56.9648 88.774 57.1588 88.504 57.2908 88.152C57.4228 87.8 57.4888 87.382 57.4888 86.898C57.4888 86.454 57.4308 86.056 57.3148 85.704C57.1988 85.348 57.0128 85.066 56.7568 84.858C56.5048 84.65 56.1748 84.546 55.7668 84.546C55.3908 84.546 55.0728 84.64 54.8128 84.828C54.5528 85.012 54.3548 85.28 54.2188 85.632C54.0868 85.984 54.0208 86.406 54.0208 86.898C54.0208 87.334 54.0808 87.73 54.2008 88.086C54.3208 88.442 54.5088 88.724 54.7648 88.932C55.0208 89.14 55.3548 89.244 55.7668 89.244ZM61.6848 90.12C61.2848 90.12 60.9308 90.05 60.6228 89.91C60.3148 89.766 60.0728 89.56 59.8968 89.292C59.7248 89.024 59.6388 88.7 59.6388 88.32C59.6388 87.632 59.8788 87.12 60.3588 86.784C60.8388 86.448 61.6088 86.268 62.6688 86.244L63.7788 86.214V85.728C63.7788 85.348 63.6648 85.048 63.4368 84.828C63.2088 84.604 62.8548 84.492 62.3748 84.492C62.0188 84.496 61.7048 84.58 61.4328 84.744C61.1648 84.908 60.9908 85.176 60.9108 85.548H59.9328C59.9568 85.144 60.0708 84.804 60.2748 84.528C60.4788 84.248 60.7628 84.036 61.1268 83.892C61.4948 83.748 61.9288 83.676 62.4288 83.676C62.9688 83.676 63.4168 83.752 63.7728 83.904C64.1328 84.056 64.4008 84.28 64.5768 84.576C64.7568 84.872 64.8468 85.236 64.8468 85.668V90H63.8988L63.8208 88.836C63.5808 89.32 63.2748 89.656 62.9028 89.844C62.5348 90.028 62.1288 90.12 61.6848 90.12ZM62.0208 89.322C62.2288 89.322 62.4348 89.284 62.6388 89.208C62.8468 89.132 63.0368 89.03 63.2088 88.902C63.3808 88.77 63.5168 88.624 63.6168 88.464C63.7208 88.3 63.7748 88.132 63.7788 87.96V86.898L62.8548 86.916C62.3828 86.924 61.9868 86.972 61.6668 87.06C61.3508 87.148 61.1128 87.286 60.9528 87.474C60.7968 87.662 60.7188 87.908 60.7188 88.212C60.7188 88.56 60.8388 88.832 61.0788 89.028C61.3228 89.224 61.6368 89.322 62.0208 89.322ZM68.9802 90.12C68.1762 90.12 67.5382 89.844 67.0662 89.292C66.5942 88.74 66.3582 87.934 66.3582 86.874C66.3582 86.23 66.4522 85.668 66.6402 85.188C66.8322 84.708 67.1162 84.336 67.4922 84.072C67.8682 83.808 68.3362 83.676 68.8962 83.676C69.1922 83.676 69.4542 83.714 69.6822 83.79C69.9142 83.866 70.1142 83.962 70.2822 84.078C70.4502 84.194 70.5862 84.314 70.6902 84.438C70.7982 84.562 70.8782 84.676 70.9302 84.78V81.084H72.0462V90H71.2002L71.0802 88.728C71.0402 88.848 70.9762 88.988 70.8882 89.148C70.8002 89.304 70.6762 89.458 70.5162 89.61C70.3562 89.758 70.1502 89.88 69.8982 89.976C69.6502 90.072 69.3442 90.12 68.9802 90.12ZM69.1782 89.268C69.8062 89.268 70.2542 89.078 70.5222 88.698C70.7942 88.314 70.9302 87.688 70.9302 86.82C70.9262 86.336 70.8642 85.924 70.7442 85.584C70.6282 85.244 70.4442 84.986 70.1922 84.81C69.9442 84.63 69.6142 84.54 69.2022 84.54C68.6902 84.54 68.2742 84.722 67.9542 85.086C67.6342 85.45 67.4742 86.028 67.4742 86.82C67.4742 87.596 67.6182 88.198 67.9062 88.626C68.1982 89.054 68.6222 89.268 69.1782 89.268ZM76.6446 91.932V83.796H77.7486L77.7606 84.876C77.8326 84.748 77.9246 84.614 78.0366 84.474C78.1526 84.334 78.2926 84.204 78.4566 84.084C78.6246 83.964 78.8186 83.866 79.0386 83.79C79.2626 83.714 79.5166 83.676 79.8006 83.676C80.2966 83.676 80.7326 83.79 81.1086 84.018C81.4886 84.242 81.7846 84.586 81.9966 85.05C82.2086 85.514 82.3146 86.102 82.3146 86.814C82.3146 87.526 82.2106 88.128 82.0026 88.62C81.7986 89.108 81.5026 89.48 81.1146 89.736C80.7266 89.992 80.2586 90.12 79.7106 90.12C79.4346 90.12 79.1886 90.08 78.9726 90C78.7606 89.924 78.5746 89.824 78.4146 89.7C78.2586 89.572 78.1266 89.436 78.0186 89.292C77.9146 89.148 77.8286 89.01 77.7606 88.878V91.932H76.6446ZM79.5006 89.256C80.0126 89.256 80.4306 89.062 80.7546 88.674C81.0786 88.282 81.2406 87.674 81.2406 86.85C81.2406 86.142 81.0926 85.58 80.7966 85.164C80.5006 84.748 80.0686 84.54 79.5006 84.54C78.9246 84.54 78.4886 84.754 78.1926 85.182C77.8966 85.606 77.7486 86.162 77.7486 86.85C77.7486 87.294 77.8146 87.698 77.9466 88.062C78.0786 88.426 78.2746 88.716 78.5346 88.932C78.7946 89.148 79.1166 89.256 79.5006 89.256ZM83.7696 90V81.084H84.8496V84.708C84.9536 84.536 85.0936 84.376 85.2696 84.228C85.4456 84.076 85.6596 83.954 85.9116 83.862C86.1636 83.766 86.4556 83.718 86.7876 83.718C87.1916 83.718 87.5576 83.794 87.8856 83.946C88.2136 84.094 88.4736 84.306 88.6656 84.582C88.8576 84.858 88.9536 85.186 88.9536 85.566V90H87.8436V85.788C87.8436 85.416 87.7156 85.13 87.4596 84.93C87.2076 84.726 86.8776 84.624 86.4696 84.624C86.1936 84.624 85.9336 84.67 85.6896 84.762C85.4456 84.85 85.2476 84.986 85.0956 85.17C84.9476 85.35 84.8736 85.58 84.8736 85.86V90H83.7696ZM93.1496 90.12C92.5776 90.12 92.0776 89.998 91.6496 89.754C91.2216 89.506 90.8896 89.144 90.6536 88.668C90.4176 88.192 90.2996 87.61 90.2996 86.922C90.2996 86.274 90.4096 85.706 90.6296 85.218C90.8496 84.73 91.1716 84.352 91.5956 84.084C92.0236 83.812 92.5416 83.676 93.1496 83.676C93.7216 83.676 94.2176 83.802 94.6376 84.054C95.0616 84.302 95.3896 84.668 95.6216 85.152C95.8536 85.636 95.9696 86.226 95.9696 86.922C95.9696 87.554 95.8616 88.11 95.6456 88.59C95.4336 89.07 95.1176 89.446 94.6976 89.718C94.2816 89.986 93.7656 90.12 93.1496 90.12ZM93.1496 89.244C93.5216 89.244 93.8356 89.15 94.0916 88.962C94.3476 88.774 94.5416 88.504 94.6736 88.152C94.8056 87.8 94.8716 87.382 94.8716 86.898C94.8716 86.454 94.8136 86.056 94.6976 85.704C94.5816 85.348 94.3956 85.066 94.1396 84.858C93.8876 84.65 93.5576 84.546 93.1496 84.546C92.7736 84.546 92.4556 84.64 92.1956 84.828C91.9356 85.012 91.7376 85.28 91.6016 85.632C91.4696 85.984 91.4036 86.406 91.4036 86.898C91.4036 87.334 91.4636 87.73 91.5836 88.086C91.7036 88.442 91.8916 88.724 92.1476 88.932C92.4036 89.14 92.7376 89.244 93.1496 89.244ZM100.375 84.606H98.9767V88.464C98.9767 88.684 98.9987 88.846 99.0427 88.95C99.0907 89.05 99.1687 89.114 99.2767 89.142C99.3887 89.17 99.5407 89.184 99.7327 89.184H100.411V89.928C100.335 89.956 100.219 89.98 100.063 90C99.9107 90.02 99.7207 90.03 99.4927 90.03C99.0647 90.03 98.7327 89.972 98.4967 89.856C98.2607 89.74 98.0947 89.568 97.9987 89.34C97.9067 89.112 97.8607 88.832 97.8607 88.5V84.606H96.8527V83.796H97.8907L98.1607 81.99H98.9767V83.79H100.375V84.606ZM104.271 90.12C103.699 90.12 103.199 89.998 102.771 89.754C102.343 89.506 102.011 89.144 101.775 88.668C101.539 88.192 101.421 87.61 101.421 86.922C101.421 86.274 101.531 85.706 101.751 85.218C101.971 84.73 102.293 84.352 102.717 84.084C103.145 83.812 103.663 83.676 104.271 83.676C104.843 83.676 105.339 83.802 105.759 84.054C106.183 84.302 106.511 84.668 106.743 85.152C106.975 85.636 107.091 86.226 107.091 86.922C107.091 87.554 106.983 88.11 106.767 88.59C106.555 89.07 106.239 89.446 105.819 89.718C105.403 89.986 104.887 90.12 104.271 90.12ZM104.271 89.244C104.643 89.244 104.957 89.15 105.213 88.962C105.469 88.774 105.663 88.504 105.795 88.152C105.927 87.8 105.993 87.382 105.993 86.898C105.993 86.454 105.935 86.056 105.819 85.704C105.703 85.348 105.517 85.066 105.261 84.858C105.009 84.65 104.679 84.546 104.271 84.546C103.895 84.546 103.577 84.64 103.317 84.828C103.057 85.012 102.859 85.28 102.723 85.632C102.591 85.984 102.525 86.406 102.525 86.898C102.525 87.334 102.585 87.73 102.705 88.086C102.825 88.442 103.013 88.724 103.269 88.932C103.525 89.14 103.859 89.244 104.271 89.244Z" fill="#637381"/>
<rect x="0.5" y="0.5" width="143" height="143" rx="71.5" stroke="#919EAB" stroke-opacity="0.32" stroke-dasharray="3 2"/>
</svg>
