<svg width="18" height="9" viewBox="0 0 18 9" fill="none" xmlns="http://www.w3.org/2000/svg">
<path fill-rule="evenodd" clip-rule="evenodd" d="M0 9H8.99491L17.7977 0H0V9Z" fill="url(#paint0_linear_929_3029)"/>
<path fill-rule="evenodd" clip-rule="evenodd" d="M10.562 1.80007H8.80428L8.81015 6.02607L7.27957 1.79867H5.76189L4.45533 5.32927C4.31641 4.43087 3.4078 4.12087 2.69289 3.88867C2.22078 3.73367 1.71972 3.50567 1.7248 3.25367C1.72872 3.04687 1.99285 2.85507 2.51778 2.88367C2.86996 2.90307 3.18104 2.93207 3.79989 3.23767L4.40837 2.15367C3.84411 1.86007 3.06385 1.67467 2.42407 1.67407H2.42015C1.67413 1.67407 1.05293 1.92107 0.667891 2.32807C0.399457 2.61207 0.254674 2.97327 0.248804 3.37267C0.239022 3.92227 0.436043 4.31187 0.850043 4.62327C1.19987 4.88527 1.64733 5.05527 2.04157 5.18007C2.52776 5.33407 2.92493 5.46807 2.92004 5.75327C2.91613 5.85727 2.87778 5.95447 2.80461 6.03287C2.6833 6.16087 2.49743 6.20887 2.24015 6.21407C1.74378 6.22487 1.37596 6.14507 0.789783 5.79087L0.248413 6.88887C0.834 7.22927 1.45559 7.40007 2.16189 7.40007L2.32076 7.39887C2.9355 7.38747 3.43441 7.23687 3.8308 6.91087C3.8535 6.89227 3.87385 6.87347 3.89498 6.85447L3.82846 7.20487L5.3115 7.20007L5.57759 6.50367C5.85737 6.60127 6.1755 6.65527 6.5132 6.65527C6.84228 6.65527 7.1518 6.60407 7.4263 6.51207L7.61178 7.20007L10.2727 7.20267L10.2791 5.61507H10.8453C12.2139 5.61507 13.0229 4.90307 13.0229 3.70907C13.0225 2.37927 12.236 1.80007 10.562 1.80007ZM6.5132 5.41247C6.30874 5.41247 6.117 5.37607 5.95207 5.31207L6.50693 3.52107H6.5177L7.06357 5.31707C6.89922 5.37707 6.71198 5.41247 6.513 5.41247H6.5132ZM10.6649 4.38347H10.2787V2.94007H10.6651C11.1797 2.94007 11.5906 3.11527 11.5906 3.65247C11.5902 4.20847 11.1797 4.38347 10.6651 4.38347" fill="white"/>
<defs>
<linearGradient id="paint0_linear_929_3029" x1="8.89885" y1="0" x2="8.89885" y2="9.0002" gradientUnits="userSpaceOnUse">
<stop stop-color="#00AEEF"/>
<stop offset="0.212" stop-color="#0097DC"/>
<stop offset="0.519" stop-color="#007CC5"/>
<stop offset="0.792" stop-color="#006CB8"/>
<stop offset="1" stop-color="#0066B3"/>
</linearGradient>
</defs>
</svg>
