<svg width="24" height="24" viewBox="0 0 24 24" fill="none" xmlns="http://www.w3.org/2000/svg">
<g id="icon/ navbar/ ic_charts">
<path id="Path" opacity="0.48" d="M14.9047 10.8857H21.2571C21.6937 10.8857 22.0476 10.5318 22.0476 10.0952C22.0476 6.15036 18.8496 2.95239 14.9047 2.95239C14.4682 2.95239 14.1143 3.3063 14.1143 3.74287V10.0952C14.1143 10.5318 14.4682 10.8857 14.9047 10.8857Z" fill="#637381"/>
<path id="Path_2" d="M21.1715 12.4762H13.4096C13.1797 12.4762 12.9593 12.3849 12.7968 12.2224C12.6342 12.0598 12.5429 11.8394 12.5429 11.6095V3.82859C12.5444 3.57873 12.4391 3.34012 12.2536 3.17277C12.0681 3.00541 11.8199 2.92524 11.5715 2.9524C6.60003 3.48029 2.88298 7.76241 3.05924 12.7587C3.23549 17.7551 7.24504 21.7646 12.2414 21.9409C17.2377 22.1171 21.5198 18.4001 22.0477 13.4286C22.0691 13.1833 21.9863 12.9404 21.8196 12.7592C21.6529 12.578 21.4177 12.4753 21.1715 12.4762Z" fill="#637381"/>
</g>
</svg>
