<svg width="24" height="24" viewBox="0 0 24 24" fill="none" xmlns="http://www.w3.org/2000/svg">
<g id="icon/navbar/ic_components">
<path id="Combined Shape" fill-rule="evenodd" clip-rule="evenodd" d="M10.5541 2.9661C10.9635 2.29613 11.9366 2.29613 12.346 2.9661L16.2488 9.35249C16.6764 10.0522 16.1728 10.95 15.3528 10.95H7.54725C6.72728 10.95 6.22373 10.0522 6.65131 9.35249L10.5541 2.9661ZM17.225 22.5C19.8346 22.5 21.95 20.3846 21.95 17.775C21.95 15.1655 19.8346 13.05 17.225 13.05C14.6155 13.05 12.5 15.1655 12.5 17.775C12.5 20.3846 14.6155 22.5 17.225 22.5Z" fill="#637381"/>
<path id="Path" opacity="0.48" d="M2 15.075C2 14.2466 2.67157 13.575 3.5 13.575H8.9C9.72843 13.575 10.4 14.2466 10.4 15.075V20.475C10.4 21.3034 9.72843 21.975 8.9 21.975H3.5C2.67157 21.975 2 21.3034 2 20.475V15.075Z" fill="#637381"/>
</g>
</svg>
