<svg width="24" height="24" viewBox="0 0 24 24" fill="none" xmlns="http://www.w3.org/2000/svg">
<g id="icon/navbar/ic_chat">
<path id="Shape" d="M8.84181 2.78845C4.11627 2.78845 0.5 5.99504 0.5 9.49056C0.5 12.9861 3.62225 15.0115 3.62225 15.0115L3.11481 16.9349C3.04773 17.1884 3.31942 17.3978 3.5475 17.2684L5.82833 15.9761C6.83698 16.2971 8.97742 16.3997 9.18585 16.4092C9.03635 15.8908 8.96256 15.38 8.96256 14.9032C8.96256 12.2055 11.3114 8.40572 16.5329 8.40572C16.6518 8.40572 16.7706 8.4086 16.8894 8.41339C16.1946 5.08797 12.7417 2.78845 8.84181 2.78845Z" fill="#637381"/>
<path id="Shape_2" opacity="0.48" d="M23.5001 14.4811C23.5001 11.4192 19.9078 9.17719 16.5325 9.17719C11.7591 9.17719 9.73364 12.6248 9.73364 14.9032C9.73364 17.1865 11.7586 20.6293 16.5325 20.6293C17.5886 20.6293 18.5177 20.4779 19.3256 20.2095L21.121 21.349C21.2629 21.4391 21.4421 21.3121 21.4042 21.1482L20.9969 19.3801C22.6932 18.1985 23.5001 16.3359 23.5001 14.4811Z" fill="#637381"/>
</g>
</svg>
