<svg width="49" height="47" viewBox="0 0 49 47" fill="none" xmlns="http://www.w3.org/2000/svg">
<path d="M12.4656 5.10821C12.4656 5.10821 3.20356 1.18771 2.30707 13.8711C2.01531 17.9664 -3.03479 22.0617 3.04442 28.2762C6.51902 31.8312 1.62806 36.1914 13.1711 41.5477C17.643 43.6245 22.6666 42.9993 23.7541 42.4483C27.7379 40.4351 40.4215 51.7198 42.6548 39.9371C43.5354 35.2855 51.1105 36.9437 47.5139 26.957C45.4398 21.2087 52.1131 16.4724 41.9121 11.4764C39.2757 10.1837 42.4161 1.88174 29.7112 2.34266C25.7858 2.48571 19.3299 -4.2798 12.4656 5.10821Z" fill="#DB1F77"/>
<path d="M14.1568 7.29035C14.1568 7.29035 5.1952 3.50582 4.32778 15.7493C4.04548 19.7026 -0.840827 23.6559 5.04122 29.6549C8.40312 33.0865 3.6708 37.2955 14.8395 42.466C19.1663 44.4708 24.027 43.8673 25.0792 43.3354C28.9338 41.392 41.206 52.2853 43.3669 40.9113C44.2189 36.421 51.5484 38.0217 48.0684 28.3814C46.0616 22.8325 52.5185 18.2604 42.6483 13.4377C40.0974 12.1898 43.1359 4.17578 30.8432 4.62072C27.045 4.75881 20.7985 -1.77206 14.1568 7.29035Z" fill="#286EB4"/>
<path d="M11.9729 22.2829C11.9964 24.4251 12.8842 25.7029 14.303 25.6841C14.2983 26.3559 14.3828 27.7042 14.8338 28.8411L13.758 37.7763C19.386 44.433 25.7139 37.6306 25.7139 37.6306L25.6341 36.6441L19.4471 32.402C22.153 33.6845 24.3516 33.4496 25.8455 32.8389C28.1756 31.8899 29.599 29.9215 30.5104 27.8216C30.6372 27.5304 30.7547 27.2344 30.8627 26.9337C30.952 26.6801 31.0365 26.4217 31.1164 26.1633C31.2667 25.6747 31.3936 25.1815 31.4969 24.6976C31.5674 24.3687 31.6332 24.0399 31.6848 23.7205C31.7224 23.495 31.76 23.2742 31.7882 23.0534C32.1264 20.6199 32.117 19.8025 32.0043 18.7267C31.6566 15.4711 29.6742 12.6242 27.3676 12.582C25.0327 12.5397 25.3475 14.5128 20.6356 14.9356C17.6478 15.2033 16.9525 17.5663 16.4781 20.1642C16.3512 20.8454 16.0834 21.1179 15.7687 21.0756C15.5573 21.0474 15.3271 20.8736 15.1157 20.5823C14.9795 20.4038 14.8244 20.2065 14.6365 19.9857C13.6876 18.8864 11.94 19.4455 11.9729 22.2829Z" fill="#F0A625"/>
<path d="M30.1206 18.1535C29.0167 17.7213 27.9409 17.9891 27.9268 17.9938C27.8281 18.0172 27.767 18.1206 27.7952 18.2193C27.8187 18.3179 27.9221 18.379 28.0207 18.3508C28.1053 18.3273 30.1206 17.834 31.2904 19.5487C31.3468 19.6333 31.4642 19.6568 31.5488 19.5957C31.6333 19.5393 31.6568 19.4219 31.5957 19.3373C31.1729 18.7172 30.6421 18.3555 30.1206 18.1535Z" fill="#371D15"/>
<path d="M22.5008 27.3845C23.6048 27.8073 24.6806 27.5302 24.6994 27.5255C24.798 27.4973 24.8544 27.3986 24.8309 27.3C24.8027 27.2013 24.7041 27.145 24.6054 27.1684C24.5209 27.1919 22.5055 27.704 21.3264 25.994C21.27 25.9094 21.1525 25.8906 21.068 25.947C20.9834 26.0034 20.9646 26.1208 21.021 26.2054C21.4485 26.8255 21.9793 27.1825 22.5008 27.3845Z" fill="#371D15"/>
<path d="M20.8705 16.9931C22.0497 16.8709 23.0174 17.4112 23.0315 17.4206C23.1208 17.4722 23.149 17.585 23.0973 17.6742C23.0456 17.7635 22.9329 17.7917 22.8436 17.74C22.7685 17.6977 20.9551 16.683 19.3719 18.0266C19.2921 18.0924 19.1793 18.083 19.1136 18.0031C19.0478 17.9232 19.0572 17.8105 19.1324 17.7447C19.7102 17.2608 20.3162 17.0541 20.8705 16.9931Z" fill="#371D15"/>
<path d="M27.3079 21.0889C27.2328 21.6433 27.5569 22.1459 28.0361 22.2117C28.5153 22.2775 28.9616 21.8782 29.0367 21.3238C29.1119 20.7695 28.7878 20.2668 28.3086 20.2011C27.8341 20.14 27.3831 20.5346 27.3079 21.0889Z" fill="#371D15"/>
<path d="M19.439 20.1164C19.3639 20.6708 19.688 21.1734 20.1672 21.2392C20.6464 21.305 21.0927 20.9056 21.1678 20.3513C21.243 19.797 20.9189 19.2943 20.4397 19.2285C19.9605 19.1628 19.5142 19.5621 19.439 20.1164Z" fill="#371D15"/>
<path d="M24.502 25.2142C24.906 25.2377 25.2959 25.1343 25.5919 24.9135C25.9208 24.6599 26.0758 24.3028 26.0147 23.9317C25.8973 23.2317 25.8033 22.5834 25.7328 22.0338C25.6859 21.7613 25.3194 21.8271 25.3711 22.0996C25.4416 22.6492 25.5355 23.3022 25.653 23.9975C25.6906 24.2324 25.5872 24.4579 25.3711 24.627C25.0892 24.8431 24.5349 24.9887 23.9007 24.6927C23.8067 24.6505 23.6987 24.688 23.6564 24.782C23.6141 24.876 23.6517 24.984 23.7457 25.0263C23.99 25.1343 24.2483 25.2001 24.502 25.2142Z" fill="#371D15"/>
<path d="M20.4708 24.1731C20.5996 23.2192 19.8869 22.3356 18.879 22.1995C17.8711 22.0634 16.9496 22.7264 16.8208 23.6803C16.6921 24.6342 17.4047 25.5178 18.4126 25.6539C19.4205 25.79 20.342 25.127 20.4708 24.1731Z" fill="#DB1F77"/>
<path d="M31.6801 23.7202C31.6284 24.0396 31.5627 24.3638 31.4922 24.6973C31.3888 25.1812 31.262 25.6698 31.1117 26.163C31.0318 26.4214 30.9472 26.6751 30.858 26.9335C30.7311 26.9429 30.5996 26.9382 30.4681 26.9194C29.458 26.7831 28.7487 25.8953 28.8755 24.9416C29.0024 23.988 29.9278 23.3209 30.9332 23.4571C31.2103 23.4947 31.464 23.5886 31.6801 23.7202Z" fill="#DB1F77"/>
</svg>
