<svg width="126" height="47" viewBox="0 0 126 47" fill="none" xmlns="http://www.w3.org/2000/svg">
<path d="M12.4656 5.10821C12.4656 5.10821 3.20356 1.18771 2.30707 13.8711C2.01531 17.9664 -3.03479 22.0617 3.04442 28.2762C6.51902 31.8312 1.62806 36.1914 13.1711 41.5477C17.643 43.6245 22.6666 42.9993 23.7541 42.4483C27.7379 40.4351 40.4215 51.7198 42.6548 39.9371C43.5354 35.2855 51.1105 36.9437 47.5139 26.957C45.4398 21.2087 52.1131 16.4724 41.9121 11.4764C39.2757 10.1837 42.4161 1.88174 29.7113 2.34266C25.7858 2.48571 19.3299 -4.2798 12.4656 5.10821Z" fill="#DB1F77"/>
<path d="M14.1569 7.29035C14.1569 7.29035 5.19526 3.50582 4.32784 15.7493C4.04554 19.7026 -0.840766 23.6559 5.04128 29.6549C8.40318 33.0865 3.67086 37.2955 14.8396 42.466C19.1664 44.4708 24.027 43.8673 25.0792 43.3354C28.9339 41.392 41.2061 52.2853 43.367 40.9113C44.219 36.421 51.5485 38.0217 48.0685 28.3814C46.0616 22.8325 52.5185 18.2604 42.6484 13.4377C40.0974 12.1898 43.136 4.17578 30.8432 4.62072C27.0451 4.75881 20.7986 -1.77206 14.1569 7.29035Z" fill="#286EB4"/>
<path d="M11.9729 22.2829C11.9964 24.4251 12.8843 25.7029 14.303 25.6841C14.2983 26.3559 14.3829 27.7041 14.8339 28.841L13.7581 37.7762C19.386 44.433 25.714 37.6306 25.714 37.6306L25.6341 36.644L19.4471 32.4019C22.153 33.6844 24.3516 33.4495 25.8455 32.8388C28.1756 31.8899 29.599 29.9215 30.5104 27.8216C30.6373 27.5303 30.7547 27.2343 30.8627 26.9337C30.952 26.68 31.0366 26.4216 31.1164 26.1632C31.2668 25.6747 31.3936 25.1814 31.497 24.6975C31.5674 24.3687 31.6332 24.0398 31.6849 23.7204C31.7224 23.4949 31.76 23.2741 31.7882 23.0533C32.1265 20.6198 32.1171 19.8024 32.0043 18.7266C31.6567 15.4711 29.6742 12.6242 27.3676 12.5819C25.0328 12.5396 25.3475 14.5127 20.6356 14.9355C17.6478 15.2033 16.9526 17.5663 16.4781 20.1642C16.3512 20.8453 16.0835 21.1178 15.7687 21.0755C15.5573 21.0473 15.3271 20.8735 15.1157 20.5823C14.9795 20.4037 14.8245 20.2064 14.6365 19.9856C13.6876 18.8864 11.94 19.4454 11.9729 22.2829Z" fill="#F0A625"/>
<path d="M30.1205 18.1534C29.0165 17.7212 27.9407 17.9889 27.9266 17.9936C27.828 18.0171 27.7669 18.1205 27.7951 18.2191C27.8186 18.3178 27.9219 18.3789 28.0206 18.3507C28.1052 18.3272 30.1205 17.8339 31.2903 19.5486C31.3466 19.6332 31.4641 19.6567 31.5486 19.5956C31.6332 19.5392 31.6567 19.4218 31.5956 19.3372C31.1728 18.7171 30.642 18.3554 30.1205 18.1534Z" fill="#371D15"/>
<path d="M22.5008 27.3846C23.6048 27.8074 24.6806 27.5302 24.6993 27.5255C24.798 27.4974 24.8544 27.3987 24.8309 27.3C24.8027 27.2014 24.704 27.145 24.6054 27.1685C24.5208 27.192 22.5055 27.7041 21.3263 25.9941C21.2699 25.9095 21.1525 25.8907 21.0679 25.9471C20.9834 26.0035 20.9646 26.1209 21.021 26.2055C21.4485 26.8256 21.9793 27.1826 22.5008 27.3846Z" fill="#371D15"/>
<path d="M20.8705 16.993C22.0496 16.8709 23.0174 17.4111 23.0315 17.4205C23.1207 17.4722 23.1489 17.5849 23.0972 17.6742C23.0456 17.7634 22.9328 17.7916 22.8436 17.74C22.7684 17.6977 20.955 16.6829 19.3719 18.0265C19.292 18.0923 19.1793 18.0829 19.1135 18.003C19.0477 17.9232 19.0571 17.8104 19.1323 17.7447C19.7101 17.2608 20.3161 17.0541 20.8705 16.993Z" fill="#371D15"/>
<path d="M27.3079 21.0889C27.2327 21.6432 27.5569 22.1459 28.0361 22.2117C28.5152 22.2774 28.9615 21.8781 29.0367 21.3238C29.1119 20.7694 28.7877 20.2668 28.3085 20.201C27.8341 20.1399 27.3831 20.5345 27.3079 21.0889Z" fill="#371D15"/>
<path d="M19.439 20.1165C19.3638 20.6708 19.688 21.1735 20.1671 21.2392C20.6463 21.305 21.0926 20.9057 21.1678 20.3514C21.2429 19.797 20.9188 19.2944 20.4396 19.2286C19.9604 19.1628 19.5142 19.5621 19.439 20.1165Z" fill="#371D15"/>
<path d="M24.5023 25.2141C24.9063 25.2376 25.2962 25.1343 25.5922 24.9135C25.921 24.6598 26.0761 24.3028 26.015 23.9316C25.8975 23.2317 25.8036 22.5834 25.7331 22.0337C25.6861 21.7613 25.3197 21.827 25.3714 22.0995C25.4418 22.6491 25.5358 23.3021 25.6533 23.9974C25.6908 24.2323 25.5875 24.4578 25.3714 24.6269C25.0895 24.843 24.5352 24.9886 23.901 24.6927C23.807 24.6504 23.699 24.688 23.6567 24.7819C23.6144 24.8759 23.652 24.984 23.7459 25.0262C23.9902 25.1343 24.2486 25.2 24.5023 25.2141Z" fill="#371D15"/>
<path d="M20.4708 24.173C20.5996 23.2191 19.8869 22.3355 18.879 22.1994C17.8711 22.0633 16.9497 22.7263 16.8209 23.6802C16.6921 24.6341 17.4047 25.5177 18.4126 25.6538C19.4205 25.7899 20.342 25.1269 20.4708 24.173Z" fill="#DB1F77"/>
<path d="M31.6801 23.7202C31.6285 24.0397 31.5627 24.3638 31.4922 24.6974C31.3889 25.1813 31.262 25.6698 31.1117 26.1631C31.0318 26.4215 30.9473 26.6752 30.858 26.9335C30.7312 26.9429 30.5996 26.9382 30.4681 26.9194C29.4581 26.7832 28.7487 25.8953 28.8755 24.9417C29.0024 23.988 29.9279 23.3209 30.9332 23.4572C31.2104 23.4948 31.464 23.5887 31.6801 23.7202Z" fill="#DB1F77"/>
<path d="M75.4629 9.66211H71.2246V7.24023H82.6016V9.66211H78.3438V21H75.4629V9.66211ZM87.3965 21.1953C86.2897 21.1953 85.3359 20.9544 84.5352 20.4727C83.7409 19.9909 83.1387 19.3333 82.7285 18.5C82.3184 17.6667 82.1133 16.7324 82.1133 15.6973C82.1133 14.6882 82.3118 13.7702 82.709 12.9434C83.1126 12.1165 83.7148 11.459 84.5156 10.9707C85.3164 10.4824 86.2962 10.2383 87.4551 10.2383C88.6725 10.2383 89.6751 10.4824 90.4629 10.9707C91.2572 11.4525 91.8398 12.1035 92.2109 12.9238C92.582 13.7376 92.7676 14.6621 92.7676 15.6973C92.7676 16.7324 92.5625 17.6667 92.1523 18.5C91.7487 19.3268 91.1432 19.9844 90.3359 20.4727C89.5286 20.9544 88.5488 21.1953 87.3965 21.1953ZM87.3672 19.0176C88.181 19.0176 88.806 18.7311 89.2422 18.1582C89.6784 17.5853 89.8965 16.765 89.8965 15.6973C89.8965 14.6426 89.6914 13.832 89.2812 13.2656C88.8711 12.6992 88.2754 12.416 87.4941 12.416C86.6868 12.416 86.0684 12.7025 85.6387 13.2754C85.209 13.8418 84.9941 14.6491 84.9941 15.6973C84.9941 16.3939 85.0918 16.9928 85.2871 17.4941C85.4889 17.9889 85.7656 18.3665 86.1172 18.627C86.4753 18.8874 86.8919 19.0176 87.3672 19.0176ZM94.9551 12.9238C94.9551 12.4681 94.9453 11.9831 94.9258 11.4688C94.9128 10.9479 94.8965 10.6061 94.877 10.4434H97.4941C97.5202 10.5605 97.5462 10.8405 97.5723 11.2832C97.6048 11.7259 97.6211 12.0579 97.6211 12.2793H97.6602C97.8685 11.7845 98.0671 11.3971 98.2559 11.1172C98.4447 10.8372 98.6888 10.6191 98.9883 10.4629C99.2878 10.3001 99.6784 10.2188 100.16 10.2188C100.336 10.2188 100.505 10.235 100.668 10.2676C100.837 10.3001 100.961 10.3392 101.039 10.3848L100.961 12.7578C100.87 12.7448 100.801 12.7318 100.756 12.7188C100.404 12.6536 100.105 12.6211 99.8574 12.6211C99.1803 12.6211 98.6497 12.8978 98.2656 13.4512C97.888 13.998 97.6992 14.7891 97.6992 15.8242V21H94.9551V12.9238ZM104.135 9.03711C103.653 9.03711 103.275 8.90039 103.002 8.62695C102.729 8.34701 102.592 7.97266 102.592 7.50391C102.592 7.02865 102.729 6.6543 103.002 6.38086C103.275 6.10091 103.653 5.96094 104.135 5.96094C104.597 5.96094 104.965 6.10091 105.238 6.38086C105.512 6.6543 105.648 7.02865 105.648 7.50391C105.648 7.96615 105.508 8.33724 105.229 8.61719C104.955 8.89714 104.59 9.03711 104.135 9.03711ZM102.748 10.4434H105.492V21H102.748V10.4434Z" fill="black"/>
<path d="M72.8437 31.9235H77.1529V32.8075H73.798V35.1027H77.0273V35.9967H73.798V39H72.8437V31.9235ZM78.2729 34.8365C78.2729 34.2874 78.2628 33.8655 78.2427 33.5709H79.0965C79.1066 33.7148 79.115 33.8756 79.1217 34.053C79.1317 34.2271 79.1367 34.3677 79.1367 34.4749H79.1568C79.2907 34.1367 79.4632 33.8839 79.6741 33.7165C79.885 33.5491 80.1244 33.4654 80.3923 33.4654C80.5765 33.4654 80.7271 33.4821 80.8443 33.5156L80.774 34.4046C80.6535 34.3677 80.5095 34.3493 80.3421 34.3493C79.9436 34.3493 79.6507 34.5134 79.4632 34.8415C79.2757 35.1663 79.1819 35.6099 79.1819 36.1724V39H78.2729V34.8365ZM83.7271 39.1004C83.2282 39.1004 82.798 38.9849 82.4364 38.7539C82.0748 38.5195 81.7985 38.1897 81.6077 37.7645C81.4169 37.3393 81.3214 36.8421 81.3214 36.2729C81.3214 35.7137 81.4135 35.2232 81.5977 34.8013C81.7818 34.3795 82.0564 34.0513 82.4213 33.817C82.7863 33.5826 83.2316 33.4654 83.7573 33.4654C84.5709 33.4654 85.1769 33.7165 85.5753 34.2188C85.9771 34.7176 86.178 35.4023 86.178 36.2729C86.178 36.8421 86.0843 37.3393 85.8968 37.7645C85.7093 38.1897 85.4314 38.5195 85.0631 38.7539C84.6948 38.9849 84.2494 39.1004 83.7271 39.1004ZM83.7171 38.332C84.1959 38.332 84.5675 38.1629 84.832 37.8248C85.0965 37.4833 85.2288 36.966 85.2288 36.2729C85.2288 35.5898 85.1016 35.0809 84.8471 34.7461C84.596 34.4079 84.236 34.2388 83.7673 34.2388C83.2952 34.2388 82.9269 34.4113 82.6624 34.7561C82.3979 35.0977 82.2656 35.6032 82.2656 36.2729C82.2656 36.7282 82.3276 37.1099 82.4515 37.418C82.5787 37.726 82.7511 37.9554 82.9688 38.106C83.1864 38.2567 83.4358 38.332 83.7171 38.332ZM87.3231 34.721C87.3231 34.5134 87.3198 34.2807 87.3131 34.0229C87.3064 33.7651 87.2997 33.6144 87.293 33.5709H88.1468C88.1568 33.6613 88.1652 33.8069 88.1719 34.0078C88.1819 34.2087 88.1869 34.3711 88.1869 34.495H88.207C88.5519 33.8086 89.0809 33.4654 89.7941 33.4654C90.1691 33.4654 90.4872 33.5525 90.7483 33.7266C91.0095 33.8973 91.1853 34.1535 91.2757 34.495H91.2857C91.4464 34.1702 91.6674 33.9174 91.9487 33.7366C92.2333 33.5558 92.5597 33.4654 92.928 33.4654C93.447 33.4654 93.8387 33.6194 94.1032 33.9275C94.3711 34.2355 94.505 34.7193 94.505 35.3789V39H93.611V35.5547C93.611 35.0826 93.529 34.7511 93.365 34.5603C93.2009 34.3661 92.9498 34.269 92.6116 34.269C92.3906 34.269 92.1847 34.3292 91.9939 34.4498C91.803 34.5703 91.6507 34.7511 91.5368 34.9922C91.423 35.2299 91.3661 35.5162 91.3661 35.851V39H90.4721V35.5547C90.4721 35.0826 90.3901 34.7511 90.226 34.5603C90.0619 34.3661 89.8108 34.269 89.4727 34.269C89.2517 34.269 89.0458 34.3326 88.8549 34.4598C88.6674 34.5837 88.5167 34.7662 88.4029 35.0073C88.2891 35.245 88.2321 35.5262 88.2321 35.851V39H87.3231V34.721Z" fill="black"/>
<g clip-path="url(#clip0_932_12240)">
<path fill-rule="evenodd" clip-rule="evenodd" d="M99 40.3445H109.28L119.34 30.2605H99V40.3445Z" fill="url(#paint0_linear_932_12240)"/>
<path fill-rule="evenodd" clip-rule="evenodd" d="M111.071 32.2773H109.062L109.069 37.0123L107.32 32.2757H105.585L104.092 36.2316C103.933 35.225 102.895 34.8776 102.078 34.6175C101.538 34.4438 100.965 34.1883 100.971 33.906C100.976 33.6743 101.278 33.4594 101.878 33.4914C102.28 33.5131 102.636 33.5456 103.343 33.888L104.038 32.6735C103.393 32.3445 102.502 32.1368 101.77 32.1361H101.766C100.913 32.1361 100.203 32.4129 99.7634 32.8689C99.4566 33.1871 99.2911 33.5918 99.2844 34.0393C99.2732 34.6551 99.4984 35.0916 99.9715 35.4405C100.371 35.7341 100.883 35.9246 101.333 36.0644C101.889 36.2369 102.343 36.3871 102.337 36.7066C102.333 36.8232 102.289 36.9321 102.205 37.0199C102.067 37.1633 101.854 37.2171 101.56 37.2229C100.993 37.235 100.573 37.1456 99.9027 36.7488L99.284 37.979C99.9532 38.3604 100.664 38.5518 101.471 38.5518L101.652 38.5505C102.355 38.5377 102.925 38.3689 103.378 38.0037C103.404 37.9828 103.427 37.9618 103.451 37.9405L103.375 38.3331L105.07 38.3277L105.374 37.5474C105.694 37.6568 106.058 37.7173 106.444 37.7173C106.82 37.7173 107.174 37.6599 107.487 37.5568L107.699 38.3277L110.74 38.3306L110.748 36.5518H111.395C112.959 36.5518 113.883 35.754 113.883 34.4162C113.883 32.9262 112.984 32.2773 111.071 32.2773ZM106.444 36.3248C106.21 36.3248 105.991 36.284 105.802 36.2123L106.437 34.2056H106.449L107.073 36.2179C106.885 36.2851 106.671 36.3248 106.443 36.3248H106.444ZM111.189 35.1719H110.747V33.5546H111.189C111.777 33.5546 112.246 33.7509 112.246 34.3528C112.246 34.9758 111.777 35.1719 111.189 35.1719" fill="white"/>
</g>
<defs>
<linearGradient id="paint0_linear_932_12240" x1="109.17" y1="30.2605" x2="109.17" y2="40.3448" gradientUnits="userSpaceOnUse">
<stop stop-color="#00AEEF"/>
<stop offset="0.212" stop-color="#0097DC"/>
<stop offset="0.519" stop-color="#007CC5"/>
<stop offset="0.792" stop-color="#006CB8"/>
<stop offset="1" stop-color="#0066B3"/>
</linearGradient>
<clipPath id="clip0_932_12240">
<rect width="20.5714" height="10.084" fill="white" transform="translate(99 30.2605)"/>
</clipPath>
</defs>
</svg>
